<svg id="devices" xmlns="http://www.w3.org/2000/svg" viewBox="0 0 1247 641.3">
	<g id="desktop">
		<g>
			<g>
				<g>
					<g>
						<linearGradient id="SVGID_1_" gradientUnits="userSpaceOnUse" x1="451.3464" y1="584.347" x2="655.3244" y2="584.347">
							<stop  offset="0" style="stop-color:#343434"/>
							<stop  offset="7.564473e-02" style="stop-color:#3E3E3E"/>
							<stop  offset="0.1607" style="stop-color:#4F4F4F"/>
							<stop  offset="0.2721" style="stop-color:#696969"/>
							<stop  offset="0.3866" style="stop-color:#808080"/>
							<stop  offset="0.6478" style="stop-color:#7C7E7F"/>
							<stop  offset="0.7512" style="stop-color:#6B6C6D"/>
							<stop  offset="0.9578" style="stop-color:#3E3E3E"/>
							<stop  offset="1" style="stop-color:#343434"/>
						</linearGradient>
						<path fill="url(#SVGID_1_)" d="M452.5,581.3h-1.2v2.6v0.1c0.1,1.8,1.4,3.4,3.6,3.4h196.9c2.1,0,3.5-1.7,3.6-3.4v-2.7H452.5z"/>
						<g>
							<linearGradient id="SVGID_2_" gradientUnits="userSpaceOnUse" x1="553.3354" y1="584.8645" x2="553.3354" y2="487.2725">
								<stop  offset="0" style="stop-color:#535353"/>
								<stop  offset="0.1632" style="stop-color:#585858"/>
								<stop  offset="0.1844" style="stop-color:#4E4E4E"/>
								<stop  offset="0.239" style="stop-color:#373737"/>
								<stop  offset="0.275" style="stop-color:#414141"/>
								<stop  offset="0.3361" style="stop-color:#5C5C5C"/>
								<stop  offset="0.3866" style="stop-color:#777777"/>
								<stop  offset="0.6478" style="stop-color:#696A6C"/>
								<stop  offset="0.7632" style="stop-color:#58595A"/>
								<stop  offset="0.9938" style="stop-color:#2B2B2B"/>
								<stop  offset="1" style="stop-color:#2A2A2A"/>
							</linearGradient>
							<path fill="url(#SVGID_2_)" d="M651.8,584.9H454.9c-3.5,0-4.9-4.4-2.1-6.4l19.8-13.9c3.7-2.6,6.1-6.7,6.5-11.1l6.4-66.2h135.5
								l6.4,66.2c0.4,4.5,2.8,8.5,6.5,11.1l19.8,13.9C656.6,580.5,655.2,584.9,651.8,584.9z"/>
						</g>
						<defs>
							<filter id="Adobe_OpacityMaskFilter" filterUnits="userSpaceOnUse" x="451.3" y="581.3" width="204" height="6.1">
								<feFlood  style="flood-color:white;flood-opacity:1" result="back"/>
								<feBlend  in="SourceGraphic" in2="back" mode="normal"/>
							</filter>
						</defs>
						<mask maskUnits="userSpaceOnUse" x="451.3" y="581.3" width="204" height="6.1" id="SVGID_3_">
							<g filter="url(#Adobe_OpacityMaskFilter)">
								<defs>
									<filter id="Adobe_OpacityMaskFilter_1_" filterUnits="userSpaceOnUse" x="451.3" y="581.3" width="204" height="6.1">
										<feFlood  style="flood-color:white;flood-opacity:1" result="back"/>
										<feBlend  in="SourceGraphic" in2="back" mode="normal"/>
									</filter>
								</defs>
								<mask maskUnits="userSpaceOnUse" x="451.3" y="581.3" width="204" height="6.1" id="SVGID_3_">
									<g filter="url(#Adobe_OpacityMaskFilter_1_)">
									</g>
								</mask>
								<linearGradient id="SVGID_4_" gradientUnits="userSpaceOnUse" x1="553.3354" y1="587.4093" x2="553.3354" y2="581.2848">
									<stop  offset="0" style="stop-color:#FFFFFF"/>
									<stop  offset="7.380247e-03" style="stop-color:#F6F6F6"/>
									<stop  offset="4.767627e-02" style="stop-color:#C8C8C8"/>
									<stop  offset="9.308982e-02" style="stop-color:#9D9D9D"/>
									<stop  offset="0.1419" style="stop-color:#777777"/>
									<stop  offset="0.195" style="stop-color:#575757"/>
									<stop  offset="0.2537" style="stop-color:#3B3B3B"/>
									<stop  offset="0.32" style="stop-color:#252525"/>
									<stop  offset="0.3974" style="stop-color:#141414"/>
									<stop  offset="0.4931" style="stop-color:#090909"/>
									<stop  offset="0.6274" style="stop-color:#020202"/>
									<stop  offset="1" style="stop-color:#000000"/>
								</linearGradient>
								<path mask="url(#SVGID_3_)" fill="url(#SVGID_4_)" d="M452.5,581.3h-1.2v2.6v0.1c0.1,1.8,1.4,3.4,3.6,3.4h196.9
									c2.1,0,3.5-1.7,3.6-3.4v-2.7H452.5z"/>
							</g>
						</mask>
						<linearGradient id="SVGID_5_" gradientUnits="userSpaceOnUse" x1="553.3354" y1="587.4093" x2="553.3354" y2="581.2848">
							<stop  offset="0" style="stop-color:#343434"/>
							<stop  offset="3.993058e-02" style="stop-color:#393939"/>
							<stop  offset="0.192" style="stop-color:#444444"/>
							<stop  offset="0.4058" style="stop-color:#4B4B4B"/>
							<stop  offset="1" style="stop-color:#4D4D4D"/>
						</linearGradient>
						<path opacity="0.7" fill="url(#SVGID_5_)" d="M452.5,581.3h-1.2v2.6v0.1c0.1,1.8,1.4,3.4,3.6,3.4h196.9c2.1,0,3.5-1.7,3.6-3.4
							v-2.7H452.5z"/>
					</g>
					<g>
						<g>
							<path fill="#333333" d="M891.7,42.2v433.7c0,9-7.3,16.4-16.4,16.4h-644c-9,0-16.4-7.3-16.4-16.4V42.2c0-9,7.3-16.4,16.4-16.4
								h644C884.4,25.8,891.7,33.2,891.7,42.2z"/>
							<path d="M891.7,42.8v433.7c0,9-7.3,16.4-16.4,16.4h-644c-9,0-16.4-7.3-16.4-16.4V42.8c0-9,7.3-16.4,16.4-16.4h644
								C884.4,26.4,891.7,33.7,891.7,42.8z"/>
						</g>
						<linearGradient id="SVGID_6_" gradientUnits="userSpaceOnUse" x1="214.9824" y1="461.6495" x2="891.6864" y2="461.6495">
							<stop  offset="0" style="stop-color:#4B4B4D"/>
							<stop  offset="1" style="stop-color:#707070"/>
						</linearGradient>
						<path fill="url(#SVGID_6_)" d="M891.7,430.4v46.1c0,4.2-1.6,8-4.1,10.8c-3,3.4-7.4,5.5-12.2,5.5h-644c-4.9,0-9.3-2.1-12.2-5.5
							c-2.6-2.9-4.1-6.7-4.1-10.8v-46.1H891.7z"/>
						<defs>
							<filter id="Adobe_OpacityMaskFilter_2_" filterUnits="userSpaceOnUse" x="219.1" y="487.3" width="668.5" height="5.5">
								<feFlood  style="flood-color:white;flood-opacity:1" result="back"/>
								<feBlend  in="SourceGraphic" in2="back" mode="normal"/>
							</filter>
						</defs>
						<mask maskUnits="userSpaceOnUse" x="219.1" y="487.3" width="668.5" height="5.5" id="SVGID_7_">
							<g filter="url(#Adobe_OpacityMaskFilter_2_)">
								<defs>
									<filter id="Adobe_OpacityMaskFilter_3_" filterUnits="userSpaceOnUse" x="219.1" y="487.3" width="668.5" height="5.5">
										<feFlood  style="flood-color:white;flood-opacity:1" result="back"/>
										<feBlend  in="SourceGraphic" in2="back" mode="normal"/>
									</filter>
								</defs>
								<mask maskUnits="userSpaceOnUse" x="219.1" y="487.3" width="668.5" height="5.5" id="SVGID_7_">
									<g filter="url(#Adobe_OpacityMaskFilter_3_)">
									</g>
								</mask>
								<linearGradient id="SVGID_8_" gradientUnits="userSpaceOnUse" x1="553.3344" y1="492.8626" x2="553.3344" y2="487.3484">
									<stop  offset="0" style="stop-color:#1A1A1A"/>
									<stop  offset="0.5583" style="stop-color:#0D0D0D"/>
									<stop  offset="1" style="stop-color:#000000"/>
								</linearGradient>
								<path mask="url(#SVGID_7_)" fill="url(#SVGID_8_)" d="M887.6,487.3c-3,3.4-7.4,5.5-12.2,5.5h-644c-4.9,0-9.3-2.1-12.2-5.5
									H887.6z"/>
							</g>
						</mask>
						<linearGradient id="SVGID_9_" gradientUnits="userSpaceOnUse" x1="553.3344" y1="492.8626" x2="553.3344" y2="487.3484">
							<stop  offset="0" style="stop-color:#000000"/>
							<stop  offset="8.855043e-02" style="stop-color:#0C0C0C"/>
							<stop  offset="0.2503" style="stop-color:#2D2D2D"/>
							<stop  offset="0.4673" style="stop-color:#636363"/>
							<stop  offset="0.7313" style="stop-color:#ADADAD"/>
							<stop  offset="1" style="stop-color:#FFFFFF"/>
						</linearGradient>
						<path fill="url(#SVGID_9_)" d="M887.6,487.3c-3,3.4-7.4,5.5-12.2,5.5h-644c-4.9,0-9.3-2.1-12.2-5.5H887.6z"/>
					</g>
				</g>
				<g>
					<path fill="#333333" d="M864,54.3H242.6c-0.7,0-1.2,0.5-1.2,1.2v374.9h1.8V56.2h620.1v374.3h1.8V55.6
						C865.2,54.9,864.7,54.3,864,54.3z"/>
				</g>
			</g>
			<rect x="215" y="430.4" fill="#777777" width="676.7" height="2"/>
		</g>
		<linearGradient id="SVGID_10_" gradientUnits="userSpaceOnUse" x1="304.7402" y1="-5.2843" x2="801.9306" y2="491.9062">
			<stop  offset="0" style="stop-color:#F2F3F4"/>
			<stop  offset="0.3559" style="stop-color:#EDEEEF"/>
			<stop  offset="0.7827" style="stop-color:#DFE0E0"/>
			<stop  offset="1" style="stop-color:#D5D6D6"/>
		</linearGradient>
		<rect x="243.3" y="56.2" fill="url(#SVGID_10_)" width="620.1" height="374.3"/>
		<defs>
			<filter id="Adobe_OpacityMaskFilter_4_" filterUnits="userSpaceOnUse" x="349.3" y="25.8" width="542.4" height="404.6">
				<feFlood  style="flood-color:white;flood-opacity:1" result="back"/>
				<feBlend  in="SourceGraphic" in2="back" mode="normal"/>
			</filter>
		</defs>
		<mask maskUnits="userSpaceOnUse" x="349.3" y="25.8" width="542.4" height="404.6" id="SVGID_11_">
			<g filter="url(#Adobe_OpacityMaskFilter_4_)">
				<defs>
					<filter id="Adobe_OpacityMaskFilter_5_" filterUnits="userSpaceOnUse" x="349.3" y="25.8" width="542.4" height="404.6">
						<feFlood  style="flood-color:white;flood-opacity:1" result="back"/>
						<feBlend  in="SourceGraphic" in2="back" mode="normal"/>
					</filter>
				</defs>
				<mask maskUnits="userSpaceOnUse" x="349.3" y="25.8" width="542.4" height="404.6" id="SVGID_11_">
					<g filter="url(#Adobe_OpacityMaskFilter_5_)">
					</g>
				</mask>
				<linearGradient id="SVGID_12_" gradientUnits="userSpaceOnUse" x1="620.4887" y1="430.4364" x2="620.4887" y2="25.836">
					<stop  offset="0.198" style="stop-color:#000000"/>
					<stop  offset="0.4968" style="stop-color:#020202"/>
					<stop  offset="0.6045" style="stop-color:#090909"/>
					<stop  offset="0.6813" style="stop-color:#141414"/>
					<stop  offset="0.7433" style="stop-color:#252525"/>
					<stop  offset="0.7965" style="stop-color:#3B3B3B"/>
					<stop  offset="0.8436" style="stop-color:#575757"/>
					<stop  offset="0.8862" style="stop-color:#777777"/>
					<stop  offset="0.9253" style="stop-color:#9D9D9D"/>
					<stop  offset="0.9618" style="stop-color:#C8C8C8"/>
					<stop  offset="0.9941" style="stop-color:#F6F6F6"/>
					<stop  offset="1" style="stop-color:#FFFFFF"/>
				</linearGradient>
				<path mask="url(#SVGID_11_)" fill="url(#SVGID_12_)" d="M891.7,42.2v388.2H349.3L753.9,25.8h121.4
					C884.4,25.8,891.7,33.2,891.7,42.2z"/>
			</g>
		</mask>
		<linearGradient id="SVGID_13_" gradientUnits="userSpaceOnUse" x1="620.4887" y1="430.4364" x2="620.4887" y2="25.836">
			<stop  offset="0.198" style="stop-color:#FFFFFF"/>
			<stop  offset="0.8866" style="stop-color:#FFFFFF"/>
			<stop  offset="1" style="stop-color:#FFFFFF"/>
		</linearGradient>
		<path opacity="0.2" fill="url(#SVGID_13_)" d="M891.7,42.2v388.2H349.3L753.9,25.8h121.4C884.4,25.8,891.7,33.2,891.7,42.2z"/>
	</g>
	<g id="tablet">
		<g>
			<g>
				<g>
					<g>
						<g>
							<linearGradient id="SVGID_14_" gradientUnits="userSpaceOnUse" x1="357.9594" y1="533.4116" x2="367.4897" y2="533.4116">
								<stop  offset="0" style="stop-color:#808080"/>
								<stop  offset="0.2847" style="stop-color:#BABABA"/>
								<stop  offset="0.3665" style="stop-color:#CECECE"/>
								<stop  offset="0.4975" style="stop-color:#E9E9E9"/>
								<stop  offset="0.6144" style="stop-color:#F9F9F9"/>
								<stop  offset="0.7043" style="stop-color:#FFFFFF"/>
								<stop  offset="0.8294" style="stop-color:#FCFCFC"/>
								<stop  offset="0.927" style="stop-color:#F2F2F2"/>
								<stop  offset="1" style="stop-color:#E5E5E5"/>
							</linearGradient>
							<path fill="url(#SVGID_14_)" d="M367.5,531c0,2.6-2.1,4.8-4.8,4.8c-2.6,0-4.8-2.1-4.8-4.8H367.5z"/>
						</g>
						<linearGradient id="SVGID_15_" gradientUnits="userSpaceOnUse" x1="357.9594" y1="438.4016" x2="367.4897" y2="438.4016">
							<stop  offset="0" style="stop-color:#808080"/>
							<stop  offset="0.2847" style="stop-color:#BABABA"/>
							<stop  offset="0.3665" style="stop-color:#CECECE"/>
							<stop  offset="0.4975" style="stop-color:#E9E9E9"/>
							<stop  offset="0.6144" style="stop-color:#F9F9F9"/>
							<stop  offset="0.7043" style="stop-color:#FFFFFF"/>
							<stop  offset="0.8294" style="stop-color:#FCFCFC"/>
							<stop  offset="0.927" style="stop-color:#F2F2F2"/>
							<stop  offset="1" style="stop-color:#E5E5E5"/>
						</linearGradient>
						<polygon fill="url(#SVGID_15_)" points="367.5,354.7 367.5,531 358,531 358,354.7 359.7,345.8 365.7,345.8 					"/>
						<linearGradient id="SVGID_16_" gradientUnits="userSpaceOnUse" x1="359.7797" y1="340.4016" x2="365.6596" y2="340.4016">
							<stop  offset="0" style="stop-color:#808080"/>
							<stop  offset="0.2847" style="stop-color:#BABABA"/>
							<stop  offset="0.3665" style="stop-color:#CECECE"/>
							<stop  offset="0.4975" style="stop-color:#E9E9E9"/>
							<stop  offset="0.6144" style="stop-color:#F9F9F9"/>
							<stop  offset="0.7043" style="stop-color:#FFFFFF"/>
							<stop  offset="0.8294" style="stop-color:#FCFCFC"/>
							<stop  offset="0.927" style="stop-color:#F2F2F2"/>
							<stop  offset="1" style="stop-color:#E5E5E5"/>
						</linearGradient>
						<path fill="url(#SVGID_16_)" d="M365.7,345.4h-5.9l1.8-9c0.3-1.3,2.1-1.3,2.3,0L365.7,345.4z"/>
					</g>
					<linearGradient id="SVGID_17_" gradientUnits="userSpaceOnUse" x1="362.7194" y1="345.7715" x2="362.7194" y2="345.3916">
						<stop  offset="0" style="stop-color:#808080"/>
						<stop  offset="2.945337e-02" style="stop-color:#898989"/>
						<stop  offset="0.1177" style="stop-color:#9F9F9F"/>
						<stop  offset="0.215" style="stop-color:#AEAEAE"/>
						<stop  offset="0.3274" style="stop-color:#B7B7B7"/>
						<stop  offset="0.4894" style="stop-color:#BABABA"/>
						<stop  offset="0.6699" style="stop-color:#B7B7B7"/>
						<stop  offset="0.8009" style="stop-color:#AEAEAE"/>
						<stop  offset="0.9159" style="stop-color:#9E9E9E"/>
						<stop  offset="1" style="stop-color:#8D8D8D"/>
					</linearGradient>
					<polygon fill="url(#SVGID_17_)" points="365.7,345.8 359.7,345.8 359.8,345.4 365.7,345.4 				"/>
				</g>
				<g>
					<g>
						<g>
							<path fill="none" d="M114.5,601.2c0.4,0,0.7,0,1.1,0h228c0.4,0,0.7,0,1.1,0c0.1,0,0.2,0,0.3,0c0.6-0.1,1.2-0.1,1.8-0.3
								c0.1,0,0.2,0,0.3-0.1c0.1,0,0.2,0,0.2-0.1c1-0.3,2-0.7,2.9-1.1c0.1,0,0.2-0.1,0.3-0.2c0.2-0.1,0.4-0.2,0.6-0.3
								c0.1-0.1,0.2-0.1,0.3-0.2c0.1-0.1,0.2-0.1,0.3-0.2c0.3-0.2,0.5-0.4,0.7-0.5c0.1-0.1,0.2-0.2,0.3-0.3c0.2-0.1,0.3-0.3,0.5-0.4
								c0.1-0.1,0.2-0.2,0.3-0.3c0.2-0.1,0.3-0.3,0.5-0.5c0,0,0,0,0,0c0.3-0.3,0.6-0.6,0.9-1c0,0,0,0,0,0c0.4-0.5,0.8-1.1,1.1-1.6
								c0.1-0.2,0.2-0.4,0.3-0.6c0,0,0-0.1,0-0.1c0.1-0.2,0.2-0.3,0.2-0.5c0.1-0.2,0.2-0.4,0.3-0.6c0.1-0.2,0.2-0.4,0.2-0.6
								c0.1-0.2,0.1-0.4,0.2-0.6c0,0,0,0,0,0c0.1-0.2,0.1-0.4,0.2-0.6c0.1-0.2,0.1-0.4,0.1-0.7c0-0.2,0.1-0.5,0.1-0.7
								c0-0.2,0.1-0.4,0.1-0.6c0,0,0-0.1,0-0.1c0-0.3,0.1-0.7,0.1-1c0-0.1,0-0.2,0-0.4V279.5c0-0.1,0-0.2,0-0.4c0-0.3,0-0.7-0.1-1
								c0,0,0-0.1,0-0.1c0-0.2,0-0.4-0.1-0.6c0-0.2-0.1-0.5-0.1-0.7c0-0.2-0.1-0.4-0.1-0.7c-0.1-0.2-0.1-0.4-0.2-0.6c0,0,0,0,0,0
								c-0.1-0.2-0.1-0.4-0.2-0.6c-0.1-0.2-0.2-0.4-0.2-0.6c-0.1-0.2-0.2-0.4-0.3-0.6c-0.1-0.2-0.2-0.3-0.2-0.5c0,0,0-0.1,0-0.1
								c-0.1-0.2-0.2-0.4-0.3-0.6c-0.3-0.6-0.7-1.1-1.1-1.6c0,0,0,0,0,0c-0.3-0.3-0.6-0.7-0.9-1c0,0,0,0,0,0
								c-0.1-0.2-0.3-0.3-0.5-0.5c-0.1-0.1-0.2-0.2-0.3-0.3c-0.2-0.1-0.3-0.3-0.5-0.4c-0.1-0.1-0.2-0.2-0.3-0.3
								c-0.2-0.2-0.5-0.4-0.7-0.5c-0.1-0.1-0.2-0.1-0.3-0.2c-0.1-0.1-0.2-0.1-0.3-0.2c-0.2-0.1-0.4-0.2-0.6-0.3
								c-0.1-0.1-0.2-0.1-0.3-0.2c-0.9-0.5-1.9-0.9-2.9-1.1c-0.1,0-0.2,0-0.2-0.1c-0.1,0-0.2-0.1-0.3-0.1c-0.6-0.1-1.2-0.2-1.8-0.3
								c-0.1,0-0.2,0-0.3,0c-0.4,0-0.7,0-1.1,0h-228c-0.4,0-0.7,0-1.1,0c-0.1,0-0.2,0-0.3,0c-0.6,0.1-1.2,0.1-1.7,0.3
								c-0.1,0-0.2,0-0.3,0.1c-0.1,0-0.2,0-0.3,0.1c-1,0.3-2,0.7-2.9,1.1c-0.1,0.1-0.2,0.1-0.3,0.2c-0.4,0.2-0.8,0.5-1.2,0.7
								c-0.1,0.1-0.2,0.1-0.3,0.2c-0.2,0.1-0.3,0.2-0.5,0.4c-0.4,0.3-0.8,0.7-1.2,1c-0.1,0.1-0.2,0.2-0.2,0.2c0,0-0.1,0.1-0.1,0.1
								c0,0-0.1,0.1-0.1,0.1c-0.1,0.1-0.2,0.3-0.3,0.4c-0.1,0.1-0.2,0.2-0.3,0.4c0,0.1-0.1,0.1-0.1,0.2c0,0-0.1,0.1-0.1,0.1
								c-0.1,0.1-0.2,0.3-0.3,0.4c0,0,0,0,0,0c-0.1,0.2-0.2,0.3-0.3,0.5c0,0,0,0,0,0.1c-0.1,0.2-0.2,0.3-0.3,0.5
								c-0.1,0.2-0.2,0.4-0.3,0.6c0,0,0,0.1,0,0.1c-0.1,0.2-0.2,0.3-0.2,0.5c-0.1,0.2-0.2,0.4-0.3,0.6c-0.1,0.2-0.2,0.4-0.2,0.6
								c-0.2,0.6-0.4,1.3-0.5,2c0,0.2-0.1,0.5-0.1,0.7c0,0.2-0.1,0.4-0.1,0.6c0,0,0,0.1,0,0.1c0,0.1,0,0.2,0,0.3c0,0.1,0,0.3,0,0.4
								c0,0.2,0,0.4,0,0.7V587c0,0.2,0,0.4,0,0.7c0,0.1,0,0.3,0,0.4c0,0.1,0,0.2,0,0.3c0,0,0,0.1,0,0.1c0,0.2,0,0.4,0.1,0.6
								c0,0.2,0.1,0.5,0.1,0.7c0.1,0.7,0.3,1.3,0.5,2c0.1,0.2,0.2,0.4,0.2,0.6c0.1,0.2,0.2,0.4,0.3,0.6c0.1,0.2,0.2,0.3,0.2,0.5
								c0,0,0,0.1,0,0.1c0.1,0.2,0.2,0.4,0.3,0.6c0.1,0.2,0.2,0.3,0.3,0.5c0,0,0,0,0,0.1c0.1,0.2,0.2,0.3,0.3,0.5c0,0,0,0,0,0
								c0.1,0.1,0.2,0.3,0.3,0.4c0,0,0,0.1,0.1,0.1c0,0.1,0.1,0.1,0.1,0.2c0.1,0.1,0.2,0.3,0.3,0.4c0.1,0.1,0.2,0.3,0.3,0.4
								c0,0,0.1,0.1,0.1,0.1c0,0,0.1,0.1,0.1,0.1c0.1,0.1,0.2,0.2,0.2,0.2c0.4,0.4,0.8,0.7,1.2,1c0.2,0.1,0.3,0.2,0.5,0.4
								c0.1,0.1,0.2,0.1,0.3,0.2c0.4,0.3,0.8,0.5,1.2,0.7c0.1,0.1,0.2,0.1,0.3,0.2c0.9,0.5,1.9,0.9,2.9,1.1c0.1,0,0.2,0.1,0.3,0.1
								c0.1,0,0.2,0.1,0.3,0.1c0.6,0.1,1.1,0.2,1.7,0.3C114.3,601.2,114.4,601.2,114.5,601.2z M115.6,599.9
								c-7.1,0-12.9-5.8-12.9-12.9V279.5c0-7.1,5.8-12.9,12.9-12.9h228c7.1,0,12.9,5.8,12.9,12.9V587c0,7.1-5.8,12.9-12.9,12.9H115.6
								z"/>
							<path fill="#DFDFDF" d="M343.6,265.1h-228c-7.9,0-14.4,6.5-14.4,14.4V587c0,7.9,6.5,14.4,14.4,14.4h228
								c7.9,0,14.4-6.4,14.4-14.4V279.5C358,271.6,351.5,265.1,343.6,265.1z M357.8,587.4c0,0,0,0.1,0,0.1c0,0.3,0,0.5,0,0.8
								c0,0,0,0,0,0.1v0.1c0,0,0,0.1,0,0.1c0,0.2,0,0.4-0.1,0.6c0,0.2-0.1,0.5-0.1,0.7c0,0.2-0.1,0.4-0.1,0.7
								c-0.1,0.2-0.1,0.4-0.2,0.6v0c-0.1,0.2-0.1,0.4-0.2,0.6c-0.1,0.2-0.1,0.4-0.2,0.6c-0.1,0.2-0.2,0.4-0.3,0.6
								c-0.1,0.2-0.2,0.3-0.3,0.5c0,0,0,0.1-0.1,0.1c-0.1,0.2-0.2,0.4-0.3,0.6c-0.3,0.6-0.7,1.1-1.1,1.6c0,0,0,0,0,0
								c-0.3,0.3-0.6,0.7-0.9,1c0,0,0,0,0,0c-0.1,0.1-0.1,0.2-0.2,0.2c-0.1,0.1-0.2,0.2-0.2,0.2c-0.1,0.1-0.2,0.2-0.3,0.3
								c-0.1,0.1-0.3,0.3-0.5,0.4c-0.1,0.1-0.2,0.2-0.3,0.3c-0.2,0.2-0.5,0.4-0.8,0.6c-0.1,0.1-0.2,0.1-0.3,0.2
								c-0.1,0.1-0.2,0.1-0.3,0.2c-0.2,0.1-0.4,0.2-0.6,0.3c-0.1,0.1-0.2,0.1-0.3,0.2c-0.9,0.5-1.9,0.9-2.9,1.1c-0.1,0-0.2,0-0.3,0.1
								c-0.1,0-0.2,0-0.3,0.1c-0.6,0.1-1.2,0.2-1.8,0.3c-0.1,0-0.2,0-0.3,0c-0.3,0-0.7,0-1.1,0h-228c-0.4,0-0.7,0-1.1,0
								c-0.1,0-0.2,0-0.3,0c-0.6-0.1-1.2-0.2-1.7-0.3c-0.1,0-0.2,0-0.3-0.1c-0.1,0-0.2-0.1-0.3-0.1c-1-0.3-2-0.7-2.9-1.1
								c-0.1-0.1-0.2-0.1-0.3-0.2c-0.4-0.2-0.8-0.4-1.1-0.7c-0.1-0.1-0.2-0.1-0.3-0.2c-0.2-0.1-0.3-0.2-0.5-0.4
								c-0.4-0.3-0.8-0.6-1.2-1c-0.1-0.1-0.2-0.1-0.2-0.2c0,0-0.1-0.1-0.1-0.1c0,0-0.1-0.1-0.1-0.1c-0.1-0.1-0.2-0.3-0.3-0.4
								c-0.1-0.1-0.2-0.3-0.3-0.4c0,0-0.1-0.1-0.1-0.2c0,0-0.1-0.1-0.1-0.1c-0.1-0.1-0.2-0.3-0.3-0.4c0,0,0,0,0,0
								c-0.1-0.2-0.2-0.3-0.3-0.5c0,0,0,0,0-0.1c-0.1-0.2-0.2-0.3-0.3-0.5c-0.1-0.2-0.2-0.4-0.3-0.6c0,0,0-0.1,0-0.1
								c-0.1-0.2-0.2-0.3-0.2-0.5c-0.1-0.2-0.2-0.4-0.3-0.6c-0.1-0.2-0.2-0.4-0.2-0.6c-0.2-0.6-0.4-1.3-0.5-2c0-0.2-0.1-0.5-0.1-0.7
								c0-0.2-0.1-0.4-0.1-0.6c0,0,0-0.1,0-0.1v-0.1c0-0.1,0-0.2,0-0.3c0-0.1,0-0.3,0-0.4c0-0.2,0-0.4,0-0.7V279.5c0-0.2,0-0.4,0-0.7
								c0-0.1,0-0.3,0-0.4c0-0.1,0-0.2,0-0.3v-0.1c0,0,0-0.1,0-0.1c0-0.2,0.1-0.4,0.1-0.6c0-0.2,0.1-0.5,0.1-0.7
								c0.1-0.7,0.3-1.3,0.5-2c0.1-0.2,0.1-0.4,0.2-0.6c0.1-0.2,0.2-0.4,0.3-0.6c0.1-0.2,0.2-0.3,0.2-0.5c0,0,0-0.1,0-0.1
								c0.1-0.2,0.2-0.4,0.3-0.6c0.1-0.2,0.2-0.3,0.3-0.5c0,0,0,0,0-0.1c0.1-0.2,0.2-0.3,0.3-0.5c0,0,0,0,0,0
								c0.1-0.1,0.2-0.3,0.3-0.4c0,0,0.1-0.1,0.1-0.1c0-0.1,0.1-0.1,0.1-0.2c0.1-0.1,0.2-0.3,0.3-0.4c0.1-0.1,0.2-0.3,0.3-0.4
								c0,0,0.1-0.1,0.1-0.1c0,0,0.1-0.1,0.1-0.1c0.1-0.1,0.2-0.2,0.2-0.2c0.4-0.4,0.8-0.7,1.2-1c0.1-0.1,0.3-0.3,0.5-0.4
								c0.1-0.1,0.2-0.1,0.3-0.2c0.4-0.3,0.8-0.5,1.1-0.7c0.1,0,0.2-0.1,0.3-0.1c0.9-0.5,1.9-0.9,2.9-1.1c0.1,0,0.2-0.1,0.3-0.1
								c0.1,0,0.2-0.1,0.3-0.1c0.6-0.1,1.1-0.2,1.7-0.3c0.1,0,0.2,0,0.3,0c0.4,0,0.7,0,1.1,0h228c0.4,0,0.7,0,1.1,0
								c0.1,0,0.2,0,0.3,0c0.6,0.1,1.2,0.1,1.8,0.3c0.1,0,0.2,0,0.3,0.1c0.1,0,0.2,0,0.3,0.1c1,0.3,2,0.7,2.9,1.1
								c0.1,0,0.2,0.1,0.3,0.1c0.2,0.1,0.4,0.2,0.6,0.4c0.1,0,0.2,0.1,0.3,0.2c0.1,0.1,0.2,0.1,0.3,0.2c0.3,0.2,0.5,0.3,0.8,0.6
								c0.1,0.1,0.2,0.2,0.3,0.3c0.2,0.1,0.3,0.3,0.5,0.4c0.1,0.1,0.2,0.2,0.3,0.3c0.2,0.1,0.3,0.3,0.5,0.5c0,0,0,0,0,0
								c0.3,0.3,0.6,0.7,0.9,1c0,0,0,0,0,0c0.4,0.5,0.8,1.1,1.1,1.6c0.1,0.2,0.2,0.4,0.3,0.6c0,0,0,0.1,0.1,0.1
								c0.1,0.2,0.2,0.3,0.3,0.5c0.1,0.2,0.2,0.4,0.3,0.6c0.1,0.2,0.2,0.4,0.2,0.6c0.1,0.2,0.1,0.4,0.2,0.6c0,0,0,0,0,0
								c0.1,0.2,0.1,0.4,0.2,0.6c0,0.2,0.1,0.5,0.1,0.7c0,0.2,0.1,0.5,0.1,0.7c0,0.2,0.1,0.4,0.1,0.6c0,0,0,0.1,0,0.1v0.1
								c0,0,0,0.1,0,0.1c0,0.2,0,0.5,0,0.7c0,0,0,0.1,0,0.1V587.4z"/>
							<g>
								
									<linearGradient id="SVGID_18_" gradientUnits="userSpaceOnUse" x1="-2342.2683" y1="2718.5361" x2="-2069.6001" y2="2991.2043" gradientTransform="matrix(0 1 1 0 -2625.2966 2639.1643)">
									<stop  offset="0" style="stop-color:#F2F3F4"/>
									<stop  offset="0.3559" style="stop-color:#EDEEEF"/>
									<stop  offset="0.7827" style="stop-color:#DFE0E0"/>
									<stop  offset="1" style="stop-color:#D5D6D6"/>
								</linearGradient>
								<path fill="url(#SVGID_18_)" d="M112.1,587V279.5c0-1.9,1.6-3.5,3.5-3.5h228c1.9,0,3.5,1.6,3.5,3.5V587
									c0,1.9-1.6,3.5-3.5,3.5h-228C113.7,590.5,112.1,588.9,112.1,587z"/>
							</g>
							<path fill="#030303" d="M115.6,599.9h228c7.1,0,12.9-5.8,12.9-12.9V279.5c0-7.1-5.8-12.9-12.9-12.9h-228
								c-7.1,0-12.9,5.8-12.9,12.9V587C102.6,594.1,108.4,599.9,115.6,599.9z M115.6,590.7c-2,0-3.7-1.7-3.7-3.7V279.5
								c0-2,1.7-3.7,3.7-3.7h228c2,0,3.7,1.7,3.7,3.7V587c0,2-1.7,3.7-3.7,3.7H115.6z"/>
						</g>
						
							<linearGradient id="SVGID_19_" gradientUnits="userSpaceOnUse" x1="-2373.9282" y1="2854.8833" x2="-2360.3528" y2="2854.8833" gradientTransform="matrix(0 1 1 0 -2625.2966 2639.1643)">
							<stop  offset="0" style="stop-color:#F1F1F1"/>
							<stop  offset="5.905396e-02" style="stop-color:#DDDDDD"/>
							<stop  offset="0.1453" style="stop-color:#C7C7C7"/>
							<stop  offset="0.2467" style="stop-color:#B6B6B6"/>
							<stop  offset="0.3711" style="stop-color:#AAAAAA"/>
							<stop  offset="0.5437" style="stop-color:#A3A3A3"/>
							<stop  offset="1" style="stop-color:#A1A1A1"/>
						</linearGradient>
						<path fill="url(#SVGID_19_)" d="M357.8,278.8c0-0.2,0-0.3,0-0.5c0-0.1,0-0.2,0-0.2c0,0,0-0.1,0-0.1c0-0.2,0-0.4-0.1-0.6
							c0-0.2-0.1-0.5-0.1-0.7c0-0.2-0.1-0.4-0.1-0.7c-0.1-0.2-0.1-0.4-0.2-0.6c0,0,0,0,0,0c-0.1-0.2-0.1-0.4-0.2-0.6
							c-0.1-0.2-0.2-0.4-0.2-0.6c-0.1-0.2-0.2-0.4-0.3-0.6c-0.1-0.2-0.2-0.3-0.2-0.5c0,0,0-0.1,0-0.1c-0.1-0.2-0.2-0.4-0.3-0.6
							c-0.3-0.6-0.7-1.1-1.1-1.6c0,0,0,0,0,0c-0.3-0.3-0.6-0.7-0.9-1c0,0,0,0,0,0c-0.1-0.2-0.3-0.3-0.5-0.5c-0.1-0.1-0.2-0.2-0.3-0.3
							c-0.2-0.1-0.3-0.3-0.5-0.4c-0.1-0.1-0.2-0.2-0.3-0.3c-0.2-0.2-0.5-0.4-0.7-0.5c-0.1-0.1-0.2-0.1-0.3-0.2
							c-0.1-0.1-0.2-0.1-0.3-0.2c-0.2-0.1-0.4-0.2-0.6-0.3c-0.1-0.1-0.2-0.1-0.3-0.2c-0.9-0.5-1.9-0.9-2.9-1.1c-0.1,0-0.2,0-0.2-0.1
							c-0.1,0-0.2-0.1-0.3-0.1c-0.6-0.1-1.2-0.2-1.8-0.3c-0.1,0-0.2,0-0.3,0c-0.4,0-0.7,0-1.1,0h-228c-0.4,0-0.7,0-1.1,0
							c-0.1,0-0.2,0-0.3,0c-0.6,0.1-1.2,0.1-1.7,0.3c-0.1,0-0.2,0-0.3,0.1c-0.1,0-0.2,0-0.3,0.1c-1,0.3-2,0.7-2.9,1.1
							c-0.1,0.1-0.2,0.1-0.3,0.2c-0.4,0.2-0.8,0.5-1.2,0.7c-0.1,0.1-0.2,0.1-0.3,0.2c-0.2,0.1-0.3,0.2-0.5,0.4
							c-0.4,0.3-0.8,0.7-1.2,1c-0.1,0.1-0.2,0.2-0.2,0.2c0,0-0.1,0.1-0.1,0.1c0,0-0.1,0.1-0.1,0.1c-0.1,0.1-0.2,0.3-0.3,0.4
							c-0.1,0.1-0.2,0.2-0.3,0.4c0,0.1-0.1,0.1-0.1,0.2c0,0-0.1,0.1-0.1,0.1c-0.1,0.1-0.2,0.3-0.3,0.4c0,0,0,0,0,0
							c-0.1,0.2-0.2,0.3-0.3,0.5c0,0,0,0,0,0.1c-0.1,0.2-0.2,0.3-0.3,0.5c-0.1,0.2-0.2,0.4-0.3,0.6c0,0,0,0.1,0,0.1
							c-0.1,0.2-0.2,0.3-0.2,0.5c-0.1,0.2-0.2,0.4-0.3,0.6c-0.1,0.2-0.2,0.4-0.2,0.6c-0.2,0.6-0.4,1.3-0.5,2c0,0.2-0.1,0.5-0.1,0.7
							c0,0.2-0.1,0.4-0.1,0.6c0,0,0,0.1,0,0.1c0,0.1,0,0.2,0,0.3c0-0.1,0-0.2,0-0.3c0-0.2,0-0.4,0.1-0.6c0-0.1,0-0.2,0.1-0.3
							c0-0.1,0-0.3,0.1-0.4c0-0.2,0.1-0.4,0.1-0.6c0-0.2,0.1-0.4,0.2-0.6c0-0.2,0.1-0.3,0.2-0.5c0.1-0.3,0.2-0.7,0.4-1
							c0-0.1,0.1-0.2,0.1-0.3c0.1-0.2,0.1-0.3,0.2-0.5c0,0,0,0,0,0c0.1-0.2,0.2-0.3,0.3-0.5c0,0,0,0,0,0c0.1-0.1,0.1-0.2,0.2-0.4
							c0.1-0.1,0.1-0.2,0.2-0.3c0,0,0,0,0-0.1c0.1-0.2,0.2-0.3,0.3-0.5c0.1-0.1,0.2-0.3,0.3-0.4c0,0,0-0.1,0.1-0.1
							c0.1-0.1,0.2-0.3,0.4-0.4c0.1-0.2,0.3-0.3,0.4-0.4c0.1-0.1,0.3-0.3,0.4-0.4c0,0,0.1-0.1,0.1-0.1c0.1-0.1,0.3-0.2,0.4-0.4
							c0.2-0.1,0.3-0.3,0.5-0.4c0.1-0.1,0.3-0.2,0.4-0.3c0.1-0.1,0.1-0.1,0.2-0.1c0.1-0.1,0.2-0.1,0.3-0.2c0.1-0.1,0.2-0.1,0.3-0.2
							c0.2-0.1,0.3-0.2,0.5-0.3c0.1-0.1,0.2-0.1,0.3-0.2c0.3-0.1,0.5-0.3,0.8-0.4c0.1,0,0.2-0.1,0.3-0.1c0.1-0.1,0.3-0.1,0.4-0.1
							c0.2-0.1,0.3-0.1,0.5-0.2c0.2-0.1,0.4-0.1,0.5-0.2c0,0,0,0,0,0c0.2-0.1,0.4-0.1,0.6-0.1c0,0,0,0,0,0c0.1,0,0.3-0.1,0.4-0.1
							c0.7-0.1,1.4-0.2,2.1-0.2h230.7c0.3,0,0.5,0,0.8,0c0.1,0,0.3,0,0.4,0c0.1,0,0.2,0,0.3,0c0.1,0,0.1,0,0.2,0c0.2,0,0.3,0,0.5,0.1
							c0,0,0,0,0.1,0c0.1,0,0.2,0,0.3,0c0,0,0.1,0,0.1,0c0,0,0,0,0,0c0.1,0,0.3,0.1,0.4,0.1c0.1,0,0.1,0,0.2,0c0.2,0,0.4,0.1,0.6,0.2
							c0.2,0.1,0.4,0.1,0.5,0.2c0,0,0,0,0,0c0.1,0,0.2,0.1,0.3,0.1c0,0,0,0,0,0c0.1,0,0.2,0.1,0.3,0.1c0,0,0,0,0,0
							c0.3,0.1,0.5,0.2,0.8,0.4c0.1,0.1,0.2,0.1,0.3,0.2c0.2,0.1,0.3,0.2,0.5,0.3c0.1,0,0.2,0.1,0.3,0.2c0.1,0.1,0.2,0.1,0.3,0.2
							c0.1,0,0.1,0.1,0.2,0.1c0.1,0.1,0.3,0.2,0.4,0.3c0.2,0.1,0.3,0.2,0.5,0.4c0.1,0.1,0.2,0.2,0.4,0.3c0,0,0,0,0.1,0
							c0,0,0.1,0.1,0.1,0.1c0,0,0,0,0,0c0.1,0.1,0.2,0.2,0.4,0.3c0.1,0.1,0.2,0.2,0.3,0.3c0,0,0,0,0,0c0,0,0.1,0.1,0.1,0.2
							c0.1,0.1,0.2,0.2,0.3,0.3c0,0,0.1,0.1,0.1,0.1c0.1,0.1,0.2,0.3,0.3,0.4c0.1,0.1,0.2,0.2,0.2,0.3c0,0,0,0,0,0
							c0.1,0.1,0.1,0.2,0.2,0.3c0.1,0.1,0.2,0.3,0.3,0.5c0,0,0,0,0,0c0.1,0.1,0.1,0.2,0.2,0.3c0,0.1,0.1,0.1,0.1,0.2
							c0.1,0.1,0.1,0.2,0.2,0.3c0.1,0.1,0.2,0.3,0.2,0.5c0.1,0.1,0.1,0.2,0.2,0.3c0,0,0,0.1,0.1,0.1c0,0.1,0.1,0.2,0.1,0.4
							c0,0.1,0.1,0.2,0.1,0.2c0,0,0,0,0,0c0,0.1,0.1,0.3,0.1,0.4c0,0.1,0.1,0.3,0.1,0.5c0,0,0,0,0,0.1c0,0.1,0,0.1,0,0.2
							c0,0.1,0.1,0.3,0.1,0.4c0,0,0,0,0,0c0,0.1,0,0.2,0.1,0.4c0,0.1,0,0.2,0.1,0.3c0,0.2,0.1,0.4,0.1,0.6
							C357.8,278.4,357.8,278.6,357.8,278.8z"/>
						<path fill="#DFDFDF" d="M357.8,279.5c0-0.2,0-0.4,0-0.7C357.8,279,357.8,279.3,357.8,279.5z"/>
						
							<linearGradient id="SVGID_20_" gradientUnits="userSpaceOnUse" x1="-2051.1333" y1="2854.8679" x2="-2037.9401" y2="2854.8679" gradientTransform="matrix(0 1 1 0 -2625.2966 2639.1643)">
							<stop  offset="0" style="stop-color:#A1A1A1"/>
							<stop  offset="0.4563" style="stop-color:#A3A3A3"/>
							<stop  offset="0.6289" style="stop-color:#AAAAAA"/>
							<stop  offset="0.7533" style="stop-color:#B6B6B6"/>
							<stop  offset="0.8547" style="stop-color:#C7C7C7"/>
							<stop  offset="0.9409" style="stop-color:#DDDDDD"/>
							<stop  offset="1" style="stop-color:#F1F1F1"/>
						</linearGradient>
						<path fill="url(#SVGID_20_)" d="M115.6,601.2h228c0.4,0,0.7,0,1.1,0c0.1,0,0.2,0,0.3,0c0.6-0.1,1.2-0.1,1.8-0.3
							c0.1,0,0.2,0,0.3-0.1c0.1,0,0.2,0,0.2-0.1c1-0.3,2-0.7,2.9-1.1c0.1-0.1,0.2-0.1,0.3-0.2c0.2-0.1,0.4-0.2,0.6-0.3
							c0.1-0.1,0.2-0.1,0.3-0.2c0.1-0.1,0.2-0.1,0.3-0.2c0.3-0.2,0.5-0.4,0.7-0.5c0.1-0.1,0.2-0.2,0.3-0.3c0.2-0.1,0.3-0.3,0.5-0.4
							c0.1-0.1,0.2-0.2,0.3-0.3c0.2-0.1,0.3-0.3,0.5-0.5c0,0,0,0,0,0c0.3-0.3,0.6-0.7,0.9-1c0,0,0,0,0,0c0.4-0.5,0.8-1.1,1.1-1.6
							c0.1-0.2,0.2-0.4,0.3-0.6c0,0,0-0.1,0-0.1c0.1-0.2,0.2-0.3,0.2-0.5c0.1-0.2,0.2-0.4,0.3-0.6c0.1-0.2,0.2-0.4,0.2-0.6
							c0.1-0.2,0.1-0.4,0.2-0.6c0,0,0,0,0,0c0.1-0.2,0.1-0.4,0.2-0.6c0.1-0.2,0.1-0.4,0.1-0.7c0-0.2,0.1-0.5,0.1-0.7
							c0-0.2,0.1-0.4,0.1-0.6c0,0,0-0.1,0-0.1c0-0.1,0-0.2,0-0.2c0,0.1,0,0.1,0,0.2c0,0.2,0,0.4-0.1,0.6c0,0.1,0,0.2-0.1,0.3
							c0,0.1,0,0.3-0.1,0.4c0,0.2-0.1,0.4-0.1,0.6c0,0.2-0.1,0.4-0.1,0.5c0,0.1-0.1,0.3-0.1,0.4c-0.1,0.3-0.2,0.5-0.3,0.8
							c0,0.1-0.1,0.2-0.2,0.3c-0.1,0.2-0.1,0.3-0.2,0.5c-0.1,0.1-0.1,0.2-0.2,0.3c0,0.1-0.1,0.1-0.1,0.2c-0.1,0.1-0.1,0.2-0.2,0.3
							c-0.1,0.2-0.2,0.3-0.3,0.5c-0.1,0.1-0.1,0.2-0.2,0.3c-0.1,0.1-0.2,0.3-0.3,0.4c-0.1,0.1-0.2,0.3-0.3,0.4c0,0-0.1,0.1-0.1,0.1
							c-0.1,0.1-0.2,0.2-0.3,0.3c0,0.1-0.1,0.1-0.1,0.2c-0.1,0.1-0.2,0.3-0.4,0.4c-0.1,0.1-0.3,0.3-0.4,0.4c0,0-0.1,0.1-0.1,0.1
							c-0.1,0.1-0.3,0.2-0.4,0.4c-0.2,0.1-0.3,0.3-0.5,0.4c-0.1,0.1-0.3,0.2-0.4,0.3c-0.1,0.1-0.1,0.1-0.2,0.1
							c-0.1,0.1-0.2,0.1-0.3,0.2c-0.1,0.1-0.2,0.1-0.3,0.2c-0.2,0.1-0.3,0.2-0.5,0.3c-0.1,0.1-0.2,0.1-0.3,0.2
							c-0.3,0.1-0.5,0.2-0.8,0.4c-0.1,0-0.2,0.1-0.3,0.1c-0.1,0-0.2,0.1-0.3,0.1c-0.2,0.1-0.4,0.1-0.5,0.2c-0.2,0.1-0.4,0.1-0.6,0.2
							c-0.2,0.1-0.4,0.1-0.6,0.1c-0.2,0-0.3,0.1-0.5,0.1c-0.7,0.1-1.4,0.2-2.1,0.2H114.2c-0.7,0-1.5-0.1-2.1-0.2
							c-0.1,0-0.3,0-0.4-0.1c0,0,0,0,0,0c-0.2,0-0.4-0.1-0.6-0.1c0,0,0,0,0,0c-0.2,0-0.4-0.1-0.5-0.2c-0.2-0.1-0.4-0.1-0.5-0.2
							c-0.1,0-0.3-0.1-0.4-0.1c-0.1,0-0.2-0.1-0.3-0.1c-0.3-0.1-0.5-0.2-0.8-0.4c-0.1-0.1-0.2-0.1-0.3-0.2c-0.2-0.1-0.3-0.2-0.5-0.3
							c-0.1,0-0.2-0.1-0.3-0.2c-0.1-0.1-0.2-0.1-0.3-0.2c-0.1,0-0.1-0.1-0.2-0.1c-0.1-0.1-0.3-0.2-0.4-0.3c-0.2-0.1-0.3-0.2-0.5-0.4
							c-0.1-0.1-0.3-0.2-0.4-0.4c0,0-0.1-0.1-0.1-0.1c-0.1-0.1-0.3-0.3-0.4-0.4c-0.1-0.1-0.3-0.3-0.4-0.4c-0.1-0.1-0.3-0.3-0.4-0.4
							c0,0-0.1-0.1-0.1-0.1c-0.1-0.1-0.2-0.3-0.3-0.4c-0.1-0.2-0.2-0.3-0.3-0.5c0,0,0,0,0-0.1c-0.1-0.1-0.1-0.2-0.2-0.3
							c-0.1-0.1-0.1-0.2-0.2-0.4c0,0,0,0,0,0c-0.1-0.2-0.2-0.3-0.3-0.5c0,0,0,0,0,0c-0.1-0.1-0.2-0.3-0.2-0.5c0-0.1-0.1-0.2-0.1-0.3
							c-0.1-0.3-0.3-0.7-0.4-1c-0.1-0.2-0.1-0.3-0.2-0.5c-0.1-0.2-0.1-0.4-0.2-0.6c0-0.2-0.1-0.4-0.1-0.6c0-0.1,0-0.2-0.1-0.4
							c0-0.1,0-0.2-0.1-0.3c0-0.2-0.1-0.4-0.1-0.6c0-0.1,0-0.2,0-0.3c0,0.1,0,0.2,0,0.3c0,0,0,0.1,0,0.1c0,0.2,0,0.4,0.1,0.6
							c0,0.2,0.1,0.5,0.1,0.7c0.1,0.7,0.3,1.3,0.5,2c0.1,0.2,0.2,0.4,0.2,0.6c0.1,0.2,0.2,0.4,0.3,0.6c0.1,0.2,0.2,0.3,0.2,0.5
							c0,0,0,0.1,0,0.1c0.1,0.2,0.2,0.4,0.3,0.6c0.1,0.2,0.2,0.3,0.3,0.5c0,0,0,0,0,0.1c0.1,0.2,0.2,0.3,0.3,0.5c0,0,0,0,0,0
							c0.1,0.1,0.2,0.3,0.3,0.4c0,0,0,0.1,0.1,0.1c0,0.1,0.1,0.1,0.1,0.2c0.1,0.1,0.2,0.3,0.3,0.4c0.1,0.1,0.2,0.3,0.3,0.4
							c0,0,0.1,0.1,0.1,0.1c0,0,0.1,0.1,0.1,0.1c0.1,0.1,0.2,0.2,0.2,0.2c0.4,0.4,0.8,0.7,1.2,1c0.2,0.1,0.3,0.2,0.5,0.4
							c0.1,0.1,0.2,0.1,0.3,0.2c0.4,0.3,0.8,0.5,1.2,0.7c0.1,0.1,0.2,0.1,0.3,0.2c0.9,0.5,1.9,0.9,2.9,1.1c0.1,0,0.2,0.1,0.3,0.1
							c0.1,0,0.2,0.1,0.3,0.1c0.6,0.1,1.1,0.2,1.7,0.3c0.1,0,0.2,0,0.3,0C114.9,601.2,115.2,601.2,115.6,601.2z"/>
						<path fill="#DFDFDF" d="M357.8,587c0,0.2,0,0.4,0,0.7C357.8,587.4,357.8,587.2,357.8,587z"/>
						
							<linearGradient id="SVGID_21_" gradientUnits="userSpaceOnUse" x1="-2372.6094" y1="2733.7402" x2="-2039.259" y2="2733.7402" gradientTransform="matrix(0 1 1 0 -2625.2966 2639.1643)">
							<stop  offset="0" style="stop-color:#C9C9C9"/>
							<stop  offset="0.4778" style="stop-color:#F1F1F1"/>
							<stop  offset="0.636" style="stop-color:#ECECEC"/>
							<stop  offset="0.819" style="stop-color:#DEDEDE"/>
							<stop  offset="1" style="stop-color:#C9C9C9"/>
						</linearGradient>
						<path fill="url(#SVGID_21_)" d="M114.2,599.9h1.3c-7.1,0-12.9-5.8-12.9-12.9V279.5c0-7.1,5.8-12.9,12.9-12.9h-1.3
							c-0.7,0-1.5,0.1-2.1,0.2c-0.1,0-0.3,0-0.4,0.1c0,0,0,0,0,0c-0.2,0-0.4,0.1-0.6,0.1c0,0,0,0,0,0c-0.2,0-0.4,0.1-0.5,0.2
							c-0.2,0.1-0.4,0.1-0.5,0.2c-0.1,0-0.3,0.1-0.4,0.1c-0.1,0-0.2,0.1-0.3,0.1c-0.3,0.1-0.5,0.2-0.8,0.4c-0.1,0.1-0.2,0.1-0.3,0.2
							c-0.2,0.1-0.3,0.2-0.5,0.3c-0.1,0-0.2,0.1-0.3,0.2c-0.1,0.1-0.2,0.1-0.3,0.2c-0.1,0-0.1,0.1-0.2,0.1c-0.1,0.1-0.3,0.2-0.4,0.3
							c-0.2,0.1-0.3,0.3-0.5,0.4c-0.1,0.1-0.3,0.2-0.4,0.4c0,0-0.1,0.1-0.1,0.1c-0.1,0.1-0.3,0.3-0.4,0.4c-0.1,0.1-0.3,0.3-0.4,0.4
							c-0.1,0.1-0.2,0.3-0.4,0.4c0,0-0.1,0.1-0.1,0.1c-0.1,0.1-0.2,0.3-0.3,0.4c-0.1,0.2-0.2,0.3-0.3,0.5c0,0,0,0,0,0.1
							c-0.1,0.1-0.1,0.2-0.2,0.3c-0.1,0.1-0.1,0.2-0.2,0.4c0,0,0,0,0,0c-0.1,0.2-0.2,0.3-0.3,0.5c0,0,0,0,0,0
							c-0.1,0.1-0.2,0.3-0.2,0.5c0,0.1-0.1,0.2-0.1,0.3c-0.1,0.3-0.3,0.7-0.4,1c-0.1,0.2-0.1,0.3-0.2,0.5c-0.1,0.2-0.1,0.4-0.2,0.6
							c0,0.2-0.1,0.4-0.1,0.6c0,0.1,0,0.2-0.1,0.4c0,0.1,0,0.2-0.1,0.3c0,0.2-0.1,0.4-0.1,0.6c0,0.1,0,0.2,0,0.3c0,0.1,0,0.3,0,0.4
							c0,0.2,0,0.4,0,0.7V587c0,0.2,0,0.4,0,0.7c0,0.1,0,0.3,0,0.4c0,0.1,0,0.2,0,0.3c0,0.2,0,0.4,0.1,0.6c0,0.1,0,0.2,0.1,0.3
							c0,0.1,0,0.3,0.1,0.4c0,0.2,0.1,0.4,0.1,0.6c0,0.2,0.1,0.4,0.2,0.6c0,0.2,0.1,0.3,0.2,0.5c0.1,0.3,0.2,0.7,0.4,1
							c0,0.1,0.1,0.2,0.1,0.3c0.1,0.2,0.1,0.3,0.2,0.5c0,0,0,0,0,0c0.1,0.2,0.2,0.3,0.3,0.5c0,0,0,0,0,0c0.1,0.1,0.1,0.2,0.2,0.4
							c0.1,0.1,0.1,0.2,0.2,0.3c0,0,0,0,0,0.1c0.1,0.2,0.2,0.3,0.3,0.5c0.1,0.2,0.2,0.3,0.3,0.4c0,0,0,0.1,0.1,0.1
							c0.1,0.1,0.2,0.3,0.4,0.4c0.1,0.2,0.3,0.3,0.4,0.4c0.1,0.1,0.3,0.3,0.4,0.4c0,0,0.1,0.1,0.1,0.1c0.1,0.1,0.3,0.2,0.4,0.4
							c0.2,0.1,0.3,0.3,0.5,0.4c0.1,0.1,0.3,0.2,0.4,0.3c0.1,0.1,0.1,0.1,0.2,0.1c0.1,0.1,0.2,0.1,0.3,0.2c0.1,0.1,0.2,0.1,0.3,0.2
							c0.2,0.1,0.3,0.2,0.5,0.3c0.1,0.1,0.2,0.1,0.3,0.2c0.3,0.1,0.5,0.3,0.8,0.4c0.1,0,0.2,0.1,0.3,0.1c0.1,0.1,0.3,0.1,0.4,0.1
							c0.2,0.1,0.3,0.1,0.5,0.2c0.2,0.1,0.4,0.1,0.5,0.2c0,0,0,0,0,0c0.2,0.1,0.4,0.1,0.6,0.1c0,0,0,0,0,0c0.1,0,0.3,0.1,0.4,0.1
							C112.8,599.8,113.5,599.9,114.2,599.9z"/>
						
							<linearGradient id="SVGID_22_" gradientUnits="userSpaceOnUse" x1="-2372.6094" y1="2976.0002" x2="-2039.259" y2="2976.0002" gradientTransform="matrix(0 1 1 0 -2625.2966 2639.1643)">
							<stop  offset="0" style="stop-color:#C9C9C9"/>
							<stop  offset="0.4778" style="stop-color:#F1F1F1"/>
							<stop  offset="0.636" style="stop-color:#ECECEC"/>
							<stop  offset="0.819" style="stop-color:#DEDEDE"/>
							<stop  offset="1" style="stop-color:#C9C9C9"/>
						</linearGradient>
						<path fill="url(#SVGID_22_)" d="M343.6,599.9h1.3c0.7,0,1.4-0.1,2.1-0.2c0.2,0,0.3,0,0.5-0.1c0.2,0,0.4-0.1,0.6-0.1
							c0.2,0,0.4-0.1,0.6-0.2c0.2-0.1,0.4-0.1,0.5-0.2c0.1,0,0.2-0.1,0.3-0.1c0.1,0,0.2-0.1,0.3-0.1c0.3-0.1,0.5-0.2,0.8-0.4
							c0.1-0.1,0.2-0.1,0.3-0.2c0.2-0.1,0.3-0.2,0.5-0.3c0.1,0,0.2-0.1,0.3-0.2c0.1-0.1,0.2-0.1,0.3-0.2c0.1,0,0.1-0.1,0.2-0.1
							c0.1-0.1,0.3-0.2,0.4-0.3c0.2-0.1,0.3-0.3,0.5-0.4c0.1-0.1,0.3-0.2,0.4-0.4c0,0,0.1-0.1,0.1-0.1c0.1-0.1,0.3-0.3,0.4-0.4
							c0.1-0.1,0.2-0.2,0.4-0.4c0,0,0.1-0.1,0.1-0.2c0.1-0.1,0.2-0.2,0.3-0.3c0,0,0.1-0.1,0.1-0.1c0.1-0.1,0.2-0.3,0.3-0.4
							c0.1-0.1,0.2-0.2,0.3-0.4c0.1-0.1,0.1-0.2,0.2-0.3c0.1-0.1,0.2-0.3,0.3-0.5c0.1-0.1,0.1-0.2,0.2-0.3c0-0.1,0.1-0.1,0.1-0.2
							c0.1-0.1,0.1-0.2,0.2-0.3c0.1-0.1,0.2-0.3,0.2-0.5c0.1-0.1,0.1-0.2,0.2-0.3c0.1-0.3,0.2-0.5,0.3-0.8c0-0.1,0.1-0.3,0.1-0.4
							c0.1-0.2,0.1-0.3,0.1-0.5c0.1-0.2,0.1-0.4,0.1-0.6c0-0.1,0-0.2,0.1-0.4c0-0.1,0-0.2,0.1-0.3c0-0.2,0.1-0.4,0.1-0.6
							c0-0.1,0-0.1,0-0.2c0-0.2,0-0.3,0-0.5c0-0.1,0-0.2,0-0.3c0-0.1,0-0.2,0-0.4V279.5c0-0.1,0-0.2,0-0.4c0-0.1,0-0.2,0-0.3
							c0-0.2,0-0.3,0-0.5c0-0.1,0-0.1,0-0.2c0-0.2,0-0.4-0.1-0.6c0-0.1,0-0.2-0.1-0.3c0-0.1,0-0.3-0.1-0.4c0,0,0,0,0,0
							c0-0.1-0.1-0.3-0.1-0.4c0-0.1,0-0.1,0-0.2c0,0,0,0,0-0.1c0-0.2-0.1-0.3-0.1-0.5c0-0.1-0.1-0.3-0.1-0.4c0,0,0,0,0,0
							c0-0.1-0.1-0.2-0.1-0.2c0-0.1-0.1-0.3-0.1-0.4c0,0,0-0.1-0.1-0.1c0-0.1-0.1-0.2-0.2-0.3c-0.1-0.2-0.1-0.3-0.2-0.5
							c-0.1-0.1-0.1-0.2-0.2-0.3c0-0.1-0.1-0.1-0.1-0.2c-0.1-0.1-0.1-0.2-0.2-0.3c0,0,0,0,0,0c-0.1-0.2-0.2-0.3-0.3-0.5
							c-0.1-0.1-0.1-0.2-0.2-0.3c0,0,0,0,0,0c-0.1-0.1-0.2-0.2-0.2-0.3c-0.1-0.2-0.2-0.3-0.3-0.4c0,0-0.1-0.1-0.1-0.1
							c-0.1-0.1-0.2-0.2-0.3-0.3c0-0.1-0.1-0.1-0.1-0.2c0,0,0,0,0,0c-0.1-0.1-0.2-0.2-0.3-0.3c-0.1-0.1-0.2-0.2-0.4-0.3c0,0,0,0,0,0
							c0,0-0.1-0.1-0.1-0.1c0,0,0,0-0.1,0c-0.1-0.1-0.2-0.2-0.4-0.3c-0.2-0.1-0.3-0.3-0.5-0.4c-0.1-0.1-0.3-0.2-0.4-0.3
							c-0.1-0.1-0.1-0.1-0.2-0.1c-0.1-0.1-0.2-0.1-0.3-0.2c-0.1-0.1-0.2-0.1-0.3-0.2c-0.2-0.1-0.3-0.2-0.5-0.3
							c-0.1-0.1-0.2-0.1-0.3-0.2c-0.3-0.1-0.5-0.2-0.8-0.4c0,0,0,0,0,0c-0.1,0-0.2-0.1-0.3-0.1c0,0,0,0,0,0c-0.1,0-0.2-0.1-0.3-0.1
							c0,0,0,0,0,0c-0.2-0.1-0.4-0.1-0.5-0.2c-0.2-0.1-0.4-0.1-0.6-0.2c-0.1,0-0.1,0-0.2,0c-0.1,0-0.3-0.1-0.4-0.1c0,0,0,0,0,0
							c0,0-0.1,0-0.1,0c-0.1,0-0.2,0-0.3,0c0,0,0,0-0.1,0c-0.1,0-0.3,0-0.5-0.1c-0.1,0-0.1,0-0.2,0c-0.1,0-0.2,0-0.3,0
							c-0.1,0-0.3,0-0.4,0c-0.3,0-0.5,0-0.8,0h-1.3c7.1,0,12.9,5.8,12.9,12.9V587C356.5,594.1,350.7,599.9,343.6,599.9z"/>
					</g>
				</g>
			</g>
		</g>
	</g>
	<g id="laptop">
		<g>
			<linearGradient id="SVGID_23_" gradientUnits="userSpaceOnUse" x1="944.5381" y1="622.4006" x2="944.5381" y2="613.0326">
				<stop  offset="0" style="stop-color:#575554"/>
				<stop  offset="0.464" style="stop-color:#575554"/>
				<stop  offset="1" style="stop-color:#131313"/>
			</linearGradient>
			<path fill="url(#SVGID_23_)" d="M661.5,613c19.9,6.2,40.6,9.4,61.5,9.4h221.5h221.5c20.8,0,41.6-3.2,61.5-9.4h-283H661.5z"/>
			<g>
				
					<linearGradient id="SVGID_24_" gradientUnits="userSpaceOnUse" x1="-6095.5469" y1="611.8547" x2="-5859.9277" y2="611.8547" gradientTransform="matrix(-1 0 0 1 -5198.4165 0)">
					<stop  offset="0" style="stop-color:#767676"/>
					<stop  offset="8.289530e-04" style="stop-color:#6E6E6E"/>
					<stop  offset="3.875887e-03" style="stop-color:#585858"/>
					<stop  offset="6.752879e-03" style="stop-color:#4A4A4A"/>
					<stop  offset="9.264740e-03" style="stop-color:#454545"/>
					<stop  offset="1.294139e-02" style="stop-color:#484848"/>
					<stop  offset="1.589011e-02" style="stop-color:#525252"/>
					<stop  offset="1.775940e-02" style="stop-color:#5D5D5D"/>
					<stop  offset="2.534020e-02" style="stop-color:#7C7C7C"/>
					<stop  offset="0.4016" style="stop-color:#838383"/>
					<stop  offset="0.4064" style="stop-color:#838383"/>
					<stop  offset="0.9354" style="stop-color:#6A6A6A"/>
					<stop  offset="0.9589" style="stop-color:#484848"/>
					<stop  offset="0.9731" style="stop-color:#383838"/>
					<stop  offset="0.9791" style="stop-color:#3D3D3D"/>
					<stop  offset="0.9862" style="stop-color:#4B4B4B"/>
					<stop  offset="0.9939" style="stop-color:#636363"/>
					<stop  offset="1" style="stop-color:#7C7C7C"/>
				</linearGradient>
				<path fill="url(#SVGID_24_)" d="M661.5,609.7v3.4h228.2c2.2,0,4.5,0.3,6.7,0.8c0.3,0.1,0.5,0.1,0.8,0.2v-4.4H661.5z"/>
				<linearGradient id="SVGID_25_" gradientUnits="userSpaceOnUse" x1="991.9171" y1="611.8547" x2="1227.5363" y2="611.8547">
					<stop  offset="0" style="stop-color:#505050"/>
					<stop  offset="8.289530e-04" style="stop-color:#484848"/>
					<stop  offset="3.875887e-03" style="stop-color:#323232"/>
					<stop  offset="6.752879e-03" style="stop-color:#242424"/>
					<stop  offset="9.264740e-03" style="stop-color:#1F1F1F"/>
					<stop  offset="1.294139e-02" style="stop-color:#222222"/>
					<stop  offset="1.589011e-02" style="stop-color:#2C2C2C"/>
					<stop  offset="1.775940e-02" style="stop-color:#373737"/>
					<stop  offset="2.534020e-02" style="stop-color:#565656"/>
					<stop  offset="0.4016" style="stop-color:#5E5E5E"/>
					<stop  offset="0.4064" style="stop-color:#5E5E5E"/>
					<stop  offset="0.9354" style="stop-color:#444444"/>
					<stop  offset="0.9589" style="stop-color:#222222"/>
					<stop  offset="0.9731" style="stop-color:#121212"/>
					<stop  offset="0.9791" style="stop-color:#171717"/>
					<stop  offset="0.9862" style="stop-color:#252525"/>
					<stop  offset="0.9939" style="stop-color:#3D3D3D"/>
					<stop  offset="1" style="stop-color:#565656"/>
				</linearGradient>
				<path fill="url(#SVGID_25_)" d="M1227.5,609.7v3.4H999.4c-2.2,0-4.5,0.3-6.7,0.8c-0.3,0.1-0.5,0.1-0.8,0.2v-4.4H1227.5z"/>
				<linearGradient id="SVGID_26_" gradientUnits="userSpaceOnUse" x1="897.1303" y1="611.9916" x2="991.9171" y2="611.9916">
					<stop  offset="0" style="stop-color:#565656"/>
					<stop  offset="6.122410e-02" style="stop-color:#444444"/>
					<stop  offset="0.5076" style="stop-color:#565656"/>
					<stop  offset="0.9402" style="stop-color:#444444"/>
					<stop  offset="1" style="stop-color:#565656"/>
				</linearGradient>
				<path fill="url(#SVGID_26_)" d="M991.9,609.7v4.4c-1,0.2-2,0.3-3,0.3h-88.9c-1,0-2-0.1-3-0.3v-4.4H991.9z"/>
			</g>
			
				<linearGradient id="SVGID_27_" gradientUnits="userSpaceOnUse" x1="-6095.5469" y1="611.3663" x2="-5859.9277" y2="611.3663" gradientTransform="matrix(-1 0 0 1 -5198.4165 0)">
				<stop  offset="0" style="stop-color:#A7A7A7"/>
				<stop  offset="1.380063e-03" style="stop-color:#8E8E8E"/>
				<stop  offset="3.528175e-03" style="stop-color:#6F6F6F"/>
				<stop  offset="5.604941e-03" style="stop-color:#585858"/>
				<stop  offset="7.559071e-03" style="stop-color:#4A4A4A"/>
				<stop  offset="9.264740e-03" style="stop-color:#454545"/>
				<stop  offset="1.202249e-02" style="stop-color:#484848"/>
				<stop  offset="1.423695e-02" style="stop-color:#525252"/>
				<stop  offset="1.625580e-02" style="stop-color:#636363"/>
				<stop  offset="1.775940e-02" style="stop-color:#757575"/>
				<stop  offset="2.534020e-02" style="stop-color:#6B6968"/>
				<stop  offset="0.4016" style="stop-color:#6B6968"/>
				<stop  offset="0.4064" style="stop-color:#6B6968"/>
				<stop  offset="0.9354" style="stop-color:#8D8D8D"/>
				<stop  offset="0.9494" style="stop-color:#636363"/>
				<stop  offset="0.965" style="stop-color:#3B3B3B"/>
				<stop  offset="0.9731" style="stop-color:#2B2B2B"/>
				<stop  offset="0.9793" style="stop-color:#303030"/>
				<stop  offset="0.9867" style="stop-color:#3E3E3E"/>
				<stop  offset="0.9946" style="stop-color:#565554"/>
				<stop  offset="1" style="stop-color:#6B6968"/>
			</linearGradient>
			<path fill="url(#SVGID_27_)" d="M661.5,609.2v3.4h228.2c2.2,0,4.5,0.3,6.7,0.8c0.3,0.1,0.5,0.1,0.8,0.2v-4.4H661.5z"/>
			<linearGradient id="SVGID_28_" gradientUnits="userSpaceOnUse" x1="944.5524" y1="608.4264" x2="944.5524" y2="299.5458">
				<stop  offset="0" style="stop-color:#504E4E"/>
				<stop  offset="9.457260e-02" style="stop-color:#585656"/>
				<stop  offset="0.2407" style="stop-color:#6E6B6B"/>
				<stop  offset="0.4192" style="stop-color:#918E8E"/>
				<stop  offset="0.447" style="stop-color:#979494"/>
				<stop  offset="1" style="stop-color:#7B7878"/>
			</linearGradient>
			<path fill="url(#SVGID_28_)" d="M1161.9,299.5H727.2c-7.8,0-14.1,6.3-14.1,14.1v294.8h2V311.6c0-0.6,0-1.2,0.1-1.8
				c0-0.2,0.1-0.4,0.1-0.6c0-0.2,0.1-0.4,0.1-0.6c0.1-0.2,0.1-0.4,0.2-0.6c0.5-1.6,1.3-3.1,2.4-4.3c0.1-0.1,0.3-0.3,0.4-0.4
				c0.1-0.1,0.1-0.1,0.2-0.2c0.6-0.6,1.3-1.2,2-1.6c0.2-0.2,0.5-0.3,0.8-0.4c0.3-0.1,0.5-0.3,0.8-0.4c0,0,0,0,0,0
				c0.2-0.1,0.4-0.2,0.5-0.2c0,0,0,0,0,0c1.4-0.5,2.9-0.8,4.4-0.8L1161.9,299.5c2,0,4,0.6,5.7,1.5c0.3,0.1,0.5,0.3,0.8,0.4
				c0.3,0.2,0.6,0.4,0.9,0.7c0,0,0,0,0,0c0.2,0.1,0.3,0.2,0.4,0.4c0,0,0,0,0,0c0.2,0.2,0.4,0.4,0.6,0.6c0.1,0.1,0.1,0.1,0.2,0.2
				c0.1,0.1,0.3,0.3,0.4,0.4c1.8,2.1,2.9,4.9,2.9,7.9v296.8h2V312.8C1175.5,305.4,1169.4,299.5,1161.9,299.5z"/>
			<linearGradient id="SVGID_29_" gradientUnits="userSpaceOnUse" x1="944.5381" y1="313.6499" x2="944.5381" y2="297.5289">
				<stop  offset="0" style="stop-color:#1A1A1A"/>
				<stop  offset="0.2805" style="stop-color:#1D1D1D"/>
				<stop  offset="0.4483" style="stop-color:#252525"/>
				<stop  offset="0.5865" style="stop-color:#333333"/>
				<stop  offset="0.7086" style="stop-color:#474747"/>
				<stop  offset="0.8201" style="stop-color:#626262"/>
				<stop  offset="0.9223" style="stop-color:#818181"/>
				<stop  offset="1" style="stop-color:#9F9F9F"/>
			</linearGradient>
			<path fill="url(#SVGID_29_)" d="M713.1,311.6c0-7.8,6.3-14.1,14.1-14.1h434.7c7.8,0,14.1,6.3,14.1,14.1v1.1
				c-0.5-7.4-6.6-13.2-14.1-13.2H727.2c-7.8,0-14.1,6.3-14.1,14.1L713.1,311.6z"/>
			<rect x="715.1" y="598.5" fill="#212121" width="458.8" height="9.9"/>
			<path d="M1173.9,311.6v286.9H715.1V311.6c0-6.6,5.4-12.1,12.1-12.1h434.7C1168.5,299.6,1173.9,305,1173.9,311.6z"/>
			<linearGradient id="SVGID_30_" gradientUnits="userSpaceOnUse" x1="991.9171" y1="611.3663" x2="1227.5363" y2="611.3663">
				<stop  offset="0" style="stop-color:#818181"/>
				<stop  offset="1.334654e-03" style="stop-color:#696969"/>
				<stop  offset="3.495432e-03" style="stop-color:#4A4A4A"/>
				<stop  offset="5.583961e-03" style="stop-color:#333333"/>
				<stop  offset="7.549283e-03" style="stop-color:#252525"/>
				<stop  offset="9.264740e-03" style="stop-color:#202020"/>
				<stop  offset="1.204667e-02" style="stop-color:#232323"/>
				<stop  offset="1.428046e-02" style="stop-color:#2D2D2D"/>
				<stop  offset="1.631731e-02" style="stop-color:#3E3E3E"/>
				<stop  offset="1.775940e-02" style="stop-color:#4F4F4F"/>
				<stop  offset="2.534020e-02" style="stop-color:#6B6968"/>
				<stop  offset="0.4016" style="stop-color:#6B6968"/>
				<stop  offset="0.4064" style="stop-color:#6B6968"/>
				<stop  offset="0.9354" style="stop-color:#686868"/>
				<stop  offset="0.9464" style="stop-color:#4B4B4B"/>
				<stop  offset="0.964" style="stop-color:#232323"/>
				<stop  offset="0.9731" style="stop-color:#131313"/>
				<stop  offset="0.9783" style="stop-color:#181818"/>
				<stop  offset="0.9844" style="stop-color:#262626"/>
				<stop  offset="0.991" style="stop-color:#3E3D3D"/>
				<stop  offset="0.9979" style="stop-color:#605E5D"/>
				<stop  offset="1" style="stop-color:#6B6968"/>
			</linearGradient>
			<path fill="url(#SVGID_30_)" d="M1227.5,609.2v3.4H999.4c-2.2,0-4.5,0.3-6.7,0.8c-0.3,0.1-0.5,0.1-0.8,0.2v-4.4H1227.5z"/>
			<linearGradient id="SVGID_31_" gradientUnits="userSpaceOnUse" x1="897.1303" y1="611.5033" x2="991.9171" y2="611.5033">
				<stop  offset="0" style="stop-color:#838180"/>
				<stop  offset="6.122410e-02" style="stop-color:#6B6968"/>
				<stop  offset="0.5076" style="stop-color:#838180"/>
				<stop  offset="0.9402" style="stop-color:#6B6968"/>
				<stop  offset="1" style="stop-color:#838180"/>
			</linearGradient>
			<path fill="url(#SVGID_31_)" d="M991.9,609.2v4.4c-1,0.2-2,0.3-3,0.3h-88.9c-1,0-2-0.1-3-0.3v-4.4H991.9z"/>
			<polygon fill="#131313" points="1176,608.4 1176,609.2 1173.9,609.2 1173.9,609.2 715.1,609.2 715.1,609.2 713.1,609.2 
				713.1,608.4 		"/>
		</g>
		<linearGradient id="SVGID_32_" gradientUnits="userSpaceOnUse" x1="765.6153" y1="276.1705" x2="1123.46" y2="634.0152">
			<stop  offset="0" style="stop-color:#F2F3F4"/>
			<stop  offset="0.3559" style="stop-color:#EDEEEF"/>
			<stop  offset="0.7827" style="stop-color:#DFE0E0"/>
			<stop  offset="1" style="stop-color:#D5D6D6"/>
		</linearGradient>
		<rect x="724.6" y="317.1" fill="url(#SVGID_32_)" width="439.8" height="275.9"/>
		<defs>
			<filter id="Adobe_OpacityMaskFilter_6_" filterUnits="userSpaceOnUse" x="800.3" y="297.5" width="375.6" height="311.7">
				<feFlood  style="flood-color:white;flood-opacity:1" result="back"/>
				<feBlend  in="SourceGraphic" in2="back" mode="normal"/>
			</filter>
		</defs>
		<mask maskUnits="userSpaceOnUse" x="800.3" y="297.5" width="375.6" height="311.7" id="SVGID_33_">
			<g filter="url(#Adobe_OpacityMaskFilter_6_)">
				<defs>
					<filter id="Adobe_OpacityMaskFilter_7_" filterUnits="userSpaceOnUse" x="800.3" y="297.5" width="375.6" height="311.7">
						<feFlood  style="flood-color:white;flood-opacity:1" result="back"/>
						<feBlend  in="SourceGraphic" in2="back" mode="normal"/>
					</filter>
				</defs>
				<mask maskUnits="userSpaceOnUse" x="800.3" y="297.5" width="375.6" height="311.7" id="SVGID_33_">
					<g filter="url(#Adobe_OpacityMaskFilter_7_)">
					</g>
				</mask>
				<linearGradient id="SVGID_34_" gradientUnits="userSpaceOnUse" x1="988.1487" y1="609.1811" x2="988.1487" y2="297.5294">
					<stop  offset="0.198" style="stop-color:#000000"/>
					<stop  offset="0.4968" style="stop-color:#020202"/>
					<stop  offset="0.6045" style="stop-color:#090909"/>
					<stop  offset="0.6813" style="stop-color:#141414"/>
					<stop  offset="0.7433" style="stop-color:#252525"/>
					<stop  offset="0.7965" style="stop-color:#3B3B3B"/>
					<stop  offset="0.8436" style="stop-color:#575757"/>
					<stop  offset="0.8862" style="stop-color:#777777"/>
					<stop  offset="0.9253" style="stop-color:#9D9D9D"/>
					<stop  offset="0.9618" style="stop-color:#C8C8C8"/>
					<stop  offset="0.9941" style="stop-color:#F6F6F6"/>
					<stop  offset="1" style="stop-color:#FFFFFF"/>
				</linearGradient>
				<path mask="url(#SVGID_33_)" fill="url(#SVGID_34_)" d="M1161.9,297.5H1112L800.3,609.2h373.6v0h2V311.6
					C1176,303.8,1169.7,297.5,1161.9,297.5z M1170.4,303.1C1170.4,303.1,1170.4,303.1,1170.4,303.1
					C1170.4,303.1,1170.4,303.1,1170.4,303.1L1170.4,303.1z"/>
			</g>
		</mask>
		<linearGradient id="SVGID_35_" gradientUnits="userSpaceOnUse" x1="988.1487" y1="609.1811" x2="988.1487" y2="297.5294">
			<stop  offset="0.198" style="stop-color:#FFFFFF"/>
			<stop  offset="0.8866" style="stop-color:#FFFFFF"/>
			<stop  offset="1" style="stop-color:#FFFFFF"/>
		</linearGradient>
		<path opacity="0.2" fill="url(#SVGID_35_)" d="M1161.9,297.5H1112L800.3,609.2h373.6v0h2V311.6
			C1176,303.8,1169.7,297.5,1161.9,297.5z M1170.4,303.1C1170.4,303.1,1170.4,303.1,1170.4,303.1
			C1170.4,303.1,1170.4,303.1,1170.4,303.1L1170.4,303.1z"/>
	</g>
	<g id="mobile">
		<g>
			<g>
				<g>
					<g>
						<path fill="#C7C7C7" d="M107.7,419.9H34.8c-7.5,0-13.6,6.1-13.6,13.6v174.8c0,7.5,6.1,13.6,13.6,13.6h72.9
							c7.5,0,13.6-6.1,13.6-13.6V433.5C121.3,426,115.2,419.9,107.7,419.9z M121,607.1c0,1.4-0.2,2.8-0.6,4.1c0,0.1-0.1,0.2-0.1,0.3
							c0,0.1-0.1,0.2-0.1,0.3c0,0.1-0.1,0.1-0.1,0.2c-0.1,0.2-0.2,0.4-0.3,0.6c0,0.1-0.1,0.2-0.1,0.3c-0.1,0.1-0.1,0.3-0.2,0.4
							c0,0.1-0.1,0.2-0.1,0.3c0,0.1-0.1,0.2-0.2,0.3c-0.1,0.2-0.3,0.5-0.5,0.7c-0.1,0.1-0.1,0.1-0.2,0.2c-0.1,0.1-0.1,0.2-0.2,0.2
							c-0.1,0.1-0.1,0.2-0.2,0.2c-0.1,0.1-0.1,0.2-0.2,0.2c-0.1,0.1-0.1,0.2-0.2,0.2c-0.1,0.2-0.3,0.3-0.4,0.5
							c-0.2,0.2-0.4,0.4-0.7,0.7c-0.1,0.1-0.1,0.1-0.2,0.2c-0.2,0.1-0.3,0.3-0.5,0.4c-0.1,0.1-0.1,0.1-0.2,0.2
							c-0.2,0.2-0.5,0.4-0.7,0.5c-0.1,0.1-0.2,0.1-0.3,0.2c-0.2,0.1-0.3,0.2-0.5,0.3c-0.1,0.1-0.2,0.1-0.3,0.1
							c-0.3,0.2-0.6,0.3-0.9,0.4c-0.1,0-0.2,0.1-0.2,0.1c-0.1,0-0.2,0.1-0.3,0.1c-0.1,0-0.2,0.1-0.3,0.1c-0.2,0.1-0.4,0.2-0.7,0.2
							c-0.1,0-0.2,0-0.2,0.1c-0.3,0.1-0.6,0.2-0.9,0.2c-0.1,0-0.2,0-0.3,0.1c-0.1,0-0.2,0-0.3,0.1c-0.2,0-0.4,0.1-0.6,0.1h0
							c0,0-0.1,0-0.1,0c0,0-0.1,0-0.1,0c0,0,0,0,0,0c0.2,0,0.4,0,0.6-0.1c0.1,0,0.2,0,0.3,0c0.1,0,0.2,0,0.3-0.1
							c0.3-0.1,0.5-0.1,0.8-0.2c0.1,0,0.2-0.1,0.3-0.1c0.2-0.1,0.3-0.1,0.5-0.2c0.3-0.1,0.5-0.2,0.8-0.3c0.1,0,0.2-0.1,0.2-0.1
							c0.1,0,0.2-0.1,0.2-0.1c0.2-0.1,0.3-0.2,0.5-0.3c0.2-0.1,0.3-0.2,0.5-0.3c0.1-0.1,0.3-0.2,0.4-0.3c0,0,0,0,0,0
							c0.2-0.2,0.4-0.3,0.7-0.5c0.1-0.1,0.1-0.1,0.2-0.2c0.2-0.2,0.4-0.3,0.6-0.5c0.5-0.4,0.9-0.9,1.3-1.4c0.1-0.1,0.1-0.1,0.2-0.2
							c0.6-0.7,1-1.6,1.4-2.4c0.1-0.1,0.1-0.3,0.2-0.4c0.3-0.7,0.5-1.4,0.6-2.1c0-0.1,0.1-0.3,0.1-0.4c0.1-0.6,0.1-1.2,0.1-1.8V433.5
							c0-6.2-4.7-11.3-10.7-11.9c-0.1,0-0.2,0-0.3,0c-0.1,0-0.2,0-0.3,0h0c-0.2,0-0.4,0-0.6,0H34.8c-0.2,0-0.4,0-0.6,0h0
							c-6.3,0.3-11.4,5.6-11.4,12v174.8c0,6.2,4.7,11.2,10.6,11.9c-0.1,0-0.2,0-0.2,0h0c-0.2,0-0.4-0.1-0.6-0.1
							c-1.2-0.2-2.4-0.6-3.5-1.1c-0.1,0-0.2-0.1-0.2-0.1c-0.2-0.1-0.4-0.2-0.6-0.3c-0.1-0.1-0.2-0.1-0.3-0.2
							c-0.4-0.3-0.9-0.6-1.3-0.9c-0.1-0.1-0.1-0.1-0.2-0.2c-0.2-0.2-0.4-0.3-0.6-0.5c-0.1-0.1-0.1-0.1-0.2-0.2
							c-0.1-0.1-0.1-0.1-0.2-0.2c-0.1-0.1-0.1-0.1-0.2-0.2c0,0-0.1-0.1-0.1-0.1c-0.1-0.1-0.1-0.1-0.2-0.2c-0.3-0.4-0.7-0.8-0.9-1.2
							c-0.1-0.1-0.1-0.1-0.2-0.2c-0.2-0.2-0.3-0.5-0.5-0.7c-0.1-0.1-0.1-0.2-0.2-0.3c-0.4-0.7-0.7-1.3-0.9-2.1c0-0.1-0.1-0.2-0.1-0.3
							c-0.2-0.5-0.3-1-0.4-1.5c0-0.1,0-0.2-0.1-0.3c-0.1-0.7-0.2-1.5-0.2-2.2V433.5c0-0.1,0-0.3,0-0.4c0-0.1,0-0.2,0-0.3
							c0-0.2,0-0.4,0-0.6c0-0.1,0-0.2,0-0.3c0-0.1,0-0.1,0-0.2c0-0.1,0-0.1,0-0.2c0-0.1,0-0.2,0.1-0.3c0-0.2,0.1-0.4,0.1-0.6
							c0-0.1,0-0.2,0.1-0.3c0.1-0.3,0.1-0.5,0.2-0.8c0-0.1,0.1-0.2,0.1-0.3c0-0.1,0.1-0.2,0.1-0.3c0-0.1,0.1-0.2,0.1-0.3
							c0-0.1,0.1-0.1,0.1-0.2c0-0.1,0.1-0.2,0.1-0.2c0-0.1,0.1-0.1,0.1-0.2c0-0.1,0.1-0.2,0.1-0.3c0.1-0.2,0.2-0.3,0.2-0.5
							c0-0.1,0.1-0.2,0.1-0.2c0-0.1,0.1-0.2,0.2-0.3c0.4-0.6,0.8-1.2,1.2-1.8c0.1-0.1,0.1-0.2,0.2-0.2c0.1-0.1,0.2-0.2,0.2-0.3
							c0.1-0.1,0.3-0.3,0.4-0.4c0.1-0.1,0.3-0.3,0.4-0.4c0.2-0.1,0.3-0.3,0.5-0.4c0.1-0.1,0.2-0.1,0.2-0.2c0.2-0.1,0.3-0.3,0.5-0.4
							c0.2-0.1,0.3-0.2,0.5-0.3c0.2-0.1,0.3-0.2,0.5-0.3c0.1-0.1,0.2-0.1,0.3-0.2c0.1-0.1,0.2-0.1,0.3-0.1c0.1,0,0.2-0.1,0.3-0.1
							c0.1,0,0.2-0.1,0.3-0.1c0.2-0.1,0.4-0.2,0.6-0.2c0.1,0,0.2-0.1,0.3-0.1c0,0,0,0,0,0c0.1,0,0.2-0.1,0.3-0.1
							c0.1,0,0.2-0.1,0.3-0.1c0.1,0,0.2-0.1,0.3-0.1c0.1,0,0.2-0.1,0.3-0.1c0.1,0,0.2-0.1,0.3-0.1c0.1,0,0.2-0.1,0.3-0.1
							c0.2,0,0.4-0.1,0.6-0.1c0.1,0,0.2,0,0.3-0.1c0.2,0,0.5-0.1,0.7-0.1c0.2,0,0.4,0,0.6,0c0.1,0,0.2,0,0.3,0c0.1,0,0.2,0,0.3,0
							h72.9c0.1,0,0.2,0,0.3,0c0.1,0,0.2,0,0.3,0c0.2,0,0.4,0,0.6,0h0c0.1,0,0.2,0,0.3,0c0.1,0,0.2,0,0.3,0c0.1,0,0.2,0,0.3,0.1
							s0.2,0,0.3,0.1c0,0,0,0,0,0c0.1,0,0.2,0,0.3,0.1c0.1,0,0.2,0,0.3,0.1c0,0,0,0,0.1,0c0.1,0,0.2,0,0.3,0.1c0.1,0,0.2,0.1,0.4,0.1
							c0.1,0,0.2,0.1,0.2,0.1c0.2,0.1,0.4,0.1,0.5,0.2c0.1,0,0.2,0.1,0.4,0.1c0.1,0,0.2,0.1,0.3,0.1c0.1,0,0.2,0.1,0.3,0.1
							c0.1,0,0.2,0.1,0.3,0.1c0.7,0.3,1.3,0.7,1.9,1.1c0.1,0.1,0.1,0.1,0.2,0.2c0.3,0.2,0.5,0.4,0.8,0.6c0.1,0.1,0.2,0.2,0.3,0.3
							c0.4,0.4,0.8,0.8,1.2,1.3c0.1,0.1,0.1,0.2,0.2,0.2c0.1,0.2,0.3,0.3,0.4,0.5c0.1,0.1,0.1,0.2,0.2,0.3c0.1,0.1,0.2,0.3,0.3,0.5
							c0,0.1,0.1,0.2,0.1,0.2c0.1,0.1,0.2,0.3,0.3,0.5c0,0.1,0.1,0.1,0.1,0.2c0.1,0.3,0.3,0.5,0.4,0.8c0,0.1,0.1,0.1,0.1,0.2
							c0.1,0.3,0.2,0.5,0.3,0.8c0,0.1,0.1,0.2,0.1,0.3c0.2,0.6,0.3,1.2,0.4,1.8c0,0.1,0,0.1,0,0.2c0,0.1,0,0.2,0,0.3
							c0,0.1,0,0.2,0,0.3c0,0.1,0,0.2,0,0.3c0,0.2,0,0.4,0,0.6c0,0.1,0,0.3,0,0.4V607.1z"/>
						<g>
							<linearGradient id="SVGID_36_" gradientUnits="userSpaceOnUse" x1="21.573" y1="520.8864" x2="23.0406" y2="520.8864">
								<stop  offset="0" style="stop-color:#666666"/>
								<stop  offset="5.747009e-02" style="stop-color:#727272"/>
								<stop  offset="0.3311" style="stop-color:#A8A8A8"/>
								<stop  offset="0.5675" style="stop-color:#D0D0D0"/>
								<stop  offset="0.7551" style="stop-color:#E8E8E8"/>
								<stop  offset="0.8704" style="stop-color:#F1F1F1"/>
								<stop  offset="0.9471" style="stop-color:#F7F7F7"/>
								<stop  offset="1" style="stop-color:#FFFFFF"/>
							</linearGradient>
							<path fill="url(#SVGID_36_)" d="M33.5,620.3c-0.1,0-0.2,0-0.3,0h0c-0.2,0-0.4-0.1-0.6-0.1c-1.2-0.2-2.4-0.6-3.5-1.1
								c-0.1,0-0.2-0.1-0.2-0.1c-0.2-0.1-0.4-0.2-0.6-0.3c-0.1-0.1-0.2-0.1-0.3-0.2c-0.4-0.3-0.9-0.6-1.3-0.9
								c-0.1-0.1-0.1-0.1-0.2-0.2c-0.2-0.2-0.4-0.3-0.6-0.5c-0.1-0.1-0.1-0.1-0.2-0.2c-0.1-0.1-0.1-0.1-0.2-0.2
								c-0.1-0.1-0.1-0.1-0.2-0.2c0,0-0.1-0.1-0.1-0.1c-0.1-0.1-0.1-0.1-0.2-0.2c-0.3-0.4-0.7-0.8-0.9-1.2c-0.1-0.1-0.1-0.1-0.2-0.2
								c-0.2-0.2-0.3-0.5-0.5-0.7c-0.1-0.1-0.1-0.2-0.2-0.3c-0.4-0.7-0.7-1.3-0.9-2.1c0-0.1-0.1-0.2-0.1-0.3c-0.2-0.5-0.3-1-0.4-1.5
								c0-0.1,0-0.2-0.1-0.3c-0.1-0.7-0.2-1.5-0.2-2.2V434.8c0-7.1,5.6-12.9,12.6-13.2c-6.3,0.3-11.4,5.6-11.4,12v174.8
								C22.8,614.5,27.5,619.6,33.5,620.3z"/>
							<linearGradient id="SVGID_37_" gradientUnits="userSpaceOnUse" x1="119.7255" y1="520.8965" x2="121.1803" y2="520.8965">
								<stop  offset="0" style="stop-color:#FFFFFF"/>
								<stop  offset="5.291899e-02" style="stop-color:#F7F7F7"/>
								<stop  offset="0.1296" style="stop-color:#F1F1F1"/>
								<stop  offset="0.2449" style="stop-color:#E8E8E8"/>
								<stop  offset="0.4325" style="stop-color:#D0D0D0"/>
								<stop  offset="0.6689" style="stop-color:#A8A8A8"/>
								<stop  offset="0.9425" style="stop-color:#727272"/>
								<stop  offset="1" style="stop-color:#666666"/>
							</linearGradient>
							<path fill="url(#SVGID_37_)" d="M121,434.8v172.3c0,1.4-0.2,2.8-0.6,4.1c0,0.1-0.1,0.2-0.1,0.3c0,0.1-0.1,0.2-0.1,0.3
								c0,0.1-0.1,0.1-0.1,0.2c-0.1,0.2-0.2,0.4-0.3,0.6c0,0.1-0.1,0.2-0.1,0.3c-0.1,0.1-0.1,0.3-0.2,0.4c0,0.1-0.1,0.2-0.1,0.3
								c0,0.1-0.1,0.2-0.2,0.3c-0.1,0.2-0.3,0.5-0.5,0.7c-0.1,0.1-0.1,0.1-0.2,0.2c-0.1,0.1-0.1,0.2-0.2,0.2
								c-0.1,0.1-0.1,0.2-0.2,0.2c-0.1,0.1-0.1,0.2-0.2,0.2c-0.1,0.1-0.1,0.2-0.2,0.2c-0.1,0.2-0.3,0.3-0.4,0.5
								c-0.2,0.2-0.4,0.4-0.7,0.7c-0.1,0.1-0.1,0.1-0.2,0.2c-0.2,0.1-0.3,0.3-0.5,0.4c-0.1,0.1-0.1,0.1-0.2,0.2
								c-0.2,0.2-0.5,0.4-0.7,0.5c-0.1,0.1-0.2,0.1-0.3,0.2c-0.2,0.1-0.3,0.2-0.5,0.3c-0.1,0.1-0.2,0.1-0.3,0.1
								c-0.3,0.2-0.6,0.3-0.9,0.4c-0.1,0-0.2,0.1-0.2,0.1c-0.1,0-0.2,0.1-0.3,0.1c-0.1,0-0.2,0.1-0.3,0.1c-0.2,0.1-0.4,0.2-0.7,0.2
								c-0.1,0-0.2,0-0.2,0.1c-0.3,0.1-0.6,0.2-0.9,0.2c-0.1,0-0.2,0-0.3,0.1c-0.1,0-0.2,0-0.3,0.1c-0.2,0-0.4,0.1-0.6,0.1h0
								c-0.1,0-0.2,0-0.3,0c6-0.6,10.7-5.7,10.7-11.9V433.5c0-6.3-4.9-11.5-11-11.9C115.5,422,121,427.8,121,434.8z"/>
							<linearGradient id="SVGID_38_" gradientUnits="userSpaceOnUse" x1="71.2663" y1="621.5779" x2="71.2663" y2="609.9579">
								<stop  offset="0" style="stop-color:#F1F1F1"/>
								<stop  offset="0.1164" style="stop-color:#E3E3E3"/>
								<stop  offset="0.3358" style="stop-color:#BFBFBF"/>
								<stop  offset="0.6347" style="stop-color:#848484"/>
								<stop  offset="1" style="stop-color:#333333"/>
							</linearGradient>
							<path fill="url(#SVGID_38_)" d="M121,607.1v1.3c0,7.3-5.9,13.2-13.2,13.2H34.8c-7.3,0-13.2-5.9-13.2-13.2v-1.3
								c0,0.8,0.1,1.5,0.2,2.2c0,0.1,0,0.2,0.1,0.3c0.1,0.5,0.2,1,0.4,1.5c0,0.1,0.1,0.2,0.1,0.3c0.3,0.7,0.6,1.4,0.9,2.1
								c0,0.1,0.1,0.2,0.2,0.3c0.1,0.2,0.3,0.5,0.5,0.7c0.1,0.1,0.1,0.1,0.2,0.2c0.3,0.4,0.6,0.8,0.9,1.2c0.1,0.1,0.1,0.1,0.2,0.2
								c0,0.1,0.1,0.1,0.1,0.1c0.1,0.1,0.1,0.1,0.2,0.2c0.1,0.1,0.1,0.1,0.2,0.2c0.1,0.1,0.1,0.1,0.2,0.2c0.2,0.2,0.4,0.4,0.6,0.5
								c0.1,0.1,0.1,0.1,0.2,0.2c0.4,0.3,0.8,0.6,1.3,0.9c0.1,0.1,0.2,0.1,0.3,0.2c0.2,0.1,0.4,0.2,0.6,0.3c0.1,0,0.2,0.1,0.2,0.1
								c1.1,0.5,2.3,0.9,3.5,1.1c0.2,0,0.4,0.1,0.6,0.1h0c0.2,0,0.4,0,0.6,0.1c0.1,0,0.2,0,0.3,0c0.2,0,0.4,0,0.6,0h72.9
								c0.2,0,0.4,0,0.6,0c0.1,0,0.2,0,0.3,0c0.2,0,0.3,0,0.5,0c0,0,0.1,0,0.1,0h0c0.2,0,0.4-0.1,0.6-0.1c0.1,0,0.2,0,0.3-0.1
								c0.1,0,0.2,0,0.3-0.1c0.3-0.1,0.6-0.1,0.9-0.2c0.1,0,0.2,0,0.2-0.1c0.2-0.1,0.4-0.1,0.7-0.2c0.1,0,0.2-0.1,0.3-0.1
								c0.1,0,0.2-0.1,0.3-0.1c0.1,0,0.2-0.1,0.2-0.1c0.3-0.1,0.6-0.3,0.9-0.4c0.1,0,0.2-0.1,0.3-0.1c0.2-0.1,0.4-0.2,0.5-0.3
								c0.1-0.1,0.2-0.1,0.3-0.2c0.3-0.2,0.5-0.3,0.7-0.5c0.1-0.1,0.1-0.1,0.2-0.2c0.2-0.1,0.3-0.3,0.5-0.4c0.1-0.1,0.1-0.1,0.2-0.2
								c0.2-0.2,0.5-0.4,0.7-0.7c0.1-0.1,0.3-0.3,0.4-0.5c0.1-0.1,0.1-0.2,0.2-0.2c0.1-0.1,0.1-0.2,0.2-0.2c0.1-0.1,0.1-0.2,0.2-0.2
								c0.1-0.1,0.1-0.2,0.2-0.2c0.1-0.1,0.1-0.1,0.2-0.2c0.2-0.2,0.3-0.5,0.5-0.7c0.1-0.1,0.1-0.2,0.2-0.3c0-0.1,0.1-0.2,0.1-0.3
								c0.1-0.1,0.1-0.3,0.2-0.4c0-0.1,0.1-0.2,0.1-0.3c0.1-0.2,0.2-0.4,0.3-0.6c0-0.1,0.1-0.1,0.1-0.2c0-0.1,0.1-0.2,0.1-0.3
								c0-0.1,0.1-0.2,0.1-0.3C120.7,609.9,121,608.5,121,607.1z"/>
						</g>
						<linearGradient id="SVGID_39_" gradientUnits="userSpaceOnUse" x1="71.2663" y1="431.3373" x2="71.2663" y2="416.8289">
							<stop  offset="0" style="stop-color:#333333"/>
							<stop  offset="7.360256e-02" style="stop-color:#4C4C4C"/>
							<stop  offset="0.2508" style="stop-color:#828282"/>
							<stop  offset="0.4239" style="stop-color:#AFAFAF"/>
							<stop  offset="0.5891" style="stop-color:#D2D2D2"/>
							<stop  offset="0.7442" style="stop-color:#EBEBEB"/>
							<stop  offset="0.8854" style="stop-color:#FAFAFA"/>
							<stop  offset="1" style="stop-color:#FFFFFF"/>
						</linearGradient>
						<path fill="url(#SVGID_39_)" d="M121,433.5v1.3c0-6.9-5.3-12.5-12-13.2c-0.1,0-0.2,0-0.3,0c-0.1,0-0.2,0-0.3,0h0
							c-0.2,0-0.4,0-0.6,0H34.8c-0.2,0-0.4,0-0.6,0h0c-7,0.3-12.6,6.1-12.6,13.2v-1.3c0-0.1,0-0.3,0-0.4c0-0.1,0-0.2,0-0.3
							c0-0.2,0-0.4,0-0.6c0-0.1,0-0.2,0-0.3c0-0.1,0-0.1,0-0.2c0-0.1,0-0.1,0-0.2c0-0.1,0-0.2,0.1-0.3c0-0.2,0.1-0.4,0.1-0.6
							c0-0.1,0-0.2,0.1-0.3c0.1-0.3,0.1-0.5,0.2-0.8c0-0.1,0.1-0.2,0.1-0.3c0-0.1,0.1-0.2,0.1-0.3c0-0.1,0.1-0.2,0.1-0.3
							c0-0.1,0.1-0.1,0.1-0.2c0-0.1,0.1-0.2,0.1-0.2c0-0.1,0.1-0.1,0.1-0.2c0-0.1,0.1-0.2,0.1-0.3c0.1-0.2,0.2-0.3,0.2-0.5
							c0-0.1,0.1-0.2,0.1-0.2c0-0.1,0.1-0.2,0.2-0.3c0.4-0.6,0.8-1.2,1.2-1.8c0.1-0.1,0.1-0.2,0.2-0.2c0.1-0.1,0.2-0.2,0.2-0.3
							c0.1-0.1,0.3-0.3,0.4-0.4c0.1-0.1,0.3-0.3,0.4-0.4c0.2-0.1,0.3-0.3,0.5-0.4c0.1-0.1,0.2-0.1,0.2-0.2c0.2-0.1,0.3-0.3,0.5-0.4
							c0.2-0.1,0.3-0.2,0.5-0.3c0.2-0.1,0.3-0.2,0.5-0.3c0.1-0.1,0.2-0.1,0.3-0.2c0.1-0.1,0.2-0.1,0.3-0.1c0.1,0,0.2-0.1,0.3-0.1
							c0.1,0,0.2-0.1,0.3-0.1c0.2-0.1,0.4-0.2,0.6-0.2c0.1,0,0.2-0.1,0.3-0.1c0,0,0,0,0,0c0.1,0,0.2-0.1,0.3-0.1
							c0.1,0,0.2-0.1,0.3-0.1c0.1,0,0.2-0.1,0.3-0.1c0.1,0,0.2-0.1,0.3-0.1c0.1,0,0.2-0.1,0.3-0.1c0.1,0,0.2-0.1,0.3-0.1
							c0.2,0,0.4-0.1,0.6-0.1c0.1,0,0.2,0,0.3-0.1c0.2,0,0.5-0.1,0.7-0.1c0.2,0,0.4,0,0.6,0c0.1,0,0.2,0,0.3,0c0.1,0,0.2,0,0.3,0
							h72.9c0.1,0,0.2,0,0.3,0c0.1,0,0.2,0,0.3,0c0.2,0,0.4,0,0.6,0h0c0.1,0,0.2,0,0.3,0c0.1,0,0.2,0,0.3,0c0.1,0,0.2,0,0.3,0.1
							s0.2,0,0.3,0.1c0,0,0,0,0,0c0.1,0,0.2,0,0.3,0.1c0.1,0,0.2,0,0.3,0.1c0,0,0,0,0.1,0c0.1,0,0.2,0,0.3,0.1c0.1,0,0.2,0.1,0.4,0.1
							c0.1,0,0.2,0.1,0.2,0.1c0.2,0.1,0.4,0.1,0.5,0.2c0.1,0,0.2,0.1,0.4,0.1c0.1,0,0.2,0.1,0.3,0.1c0.1,0,0.2,0.1,0.3,0.1
							c0.1,0,0.2,0.1,0.3,0.1c0.7,0.3,1.3,0.7,1.9,1.1c0.1,0.1,0.1,0.1,0.2,0.2c0.3,0.2,0.5,0.4,0.8,0.6c0.1,0.1,0.2,0.2,0.3,0.3
							c0.4,0.4,0.8,0.8,1.2,1.3c0.1,0.1,0.1,0.2,0.2,0.2c0.1,0.2,0.3,0.3,0.4,0.5c0.1,0.1,0.1,0.2,0.2,0.3c0.1,0.1,0.2,0.3,0.3,0.5
							c0,0.1,0.1,0.2,0.1,0.2c0.1,0.1,0.2,0.3,0.3,0.5c0,0.1,0.1,0.1,0.1,0.2c0.1,0.3,0.3,0.5,0.4,0.8c0,0.1,0.1,0.1,0.1,0.2
							c0.1,0.3,0.2,0.5,0.3,0.8c0,0.1,0.1,0.2,0.1,0.3c0.2,0.6,0.3,1.2,0.4,1.8c0,0.1,0,0.1,0,0.2c0,0.1,0,0.2,0,0.3
							c0,0.1,0,0.2,0,0.3c0,0.1,0,0.2,0,0.3c0,0.2,0,0.4,0,0.6C121,433.2,121,433.4,121,433.5z"/>
					</g>
					<g>
						<path fill="#404040" d="M108.3,421.5L108.3,421.5c-0.2,0-0.4,0-0.6,0H34.8c-0.2,0-0.4,0-0.6,0h0c-6.3,0.3-11.4,5.6-11.4,12
							v174.8c0,6.3,4.9,11.5,11,11.9c0.1,0,0.2,0,0.3,0c0.2,0,0.4,0,0.6,0h72.9c0.2,0,0.4,0,0.6,0c0.1,0,0.2,0,0.3,0
							c6.2-0.5,11-5.7,11-11.9V433.5C119.7,427.1,114.7,421.8,108.3,421.5z M118.7,608.3c0,5.7-4.4,10.5-10.1,10.9
							c-0.1,0-0.2,0-0.3,0c-0.2,0-0.4,0-0.6,0H34.8c-0.2,0-0.4,0-0.6,0c-0.1,0-0.2,0-0.3,0c-5.7-0.4-10.1-5.3-10.1-10.9V433.5
							c0-5.8,4.6-10.6,10.4-11h0l0,0c0.2,0,0.4,0,0.6,0h72.9c0.2,0,0.4,0,0.6,0l0,0c5.8,0.3,10.4,5.1,10.4,11V608.3z"/>
					</g>
					<linearGradient id="SVGID_40_" gradientUnits="userSpaceOnUse" x1="115.1481" y1="520.9623" x2="118.681" y2="520.9623">
						<stop  offset="0" style="stop-color:#F1F1F1"/>
						<stop  offset="1.192364e-03" style="stop-color:#F0F0F0"/>
						<stop  offset="0.1385" style="stop-color:#B7B7B7"/>
						<stop  offset="0.2715" style="stop-color:#888888"/>
						<stop  offset="0.397" style="stop-color:#636363"/>
						<stop  offset="0.5134" style="stop-color:#494949"/>
						<stop  offset="0.6172" style="stop-color:#393939"/>
						<stop  offset="0.6978" style="stop-color:#333333"/>
					</linearGradient>
					<path fill="url(#SVGID_40_)" d="M118.7,433.6v174.8c0,1.1-0.2,2.1-0.5,3.1c-0.2,0.8-0.6,1.6-1,2.3c-0.1,0.1-0.2,0.3-0.3,0.4
						c-0.1,0.2-0.3,0.4-0.4,0.6c-0.4,0.6-0.9,1.1-1.4,1.6c1-1.7,1.5-3.6,1.5-5.7v-2c0-0.1,0-0.2,0-0.4V433.5c0-0.1,0-0.2,0-0.4v-2
						c0-2.1-0.5-4-1.5-5.7C117.3,427.5,118.7,430.4,118.7,433.6z"/>
					<g>
						<path d="M108.2,423.5L108.2,423.5c-0.2,0-0.4,0-0.5,0H34.8c-0.2,0-0.3,0-0.5,0l0,0h0c-5.3,0.3-9.4,4.7-9.4,9.9v174.8
							c0,5.2,4,9.5,9.2,9.9c0.1,0,0.2,0,0.2,0h0c0.2,0,0.3,0,0.5,0h72.9c0.2,0,0.3,0,0.5,0h0c0.1,0,0.2,0,0.3,0
							c5.1-0.4,9.2-4.8,9.2-9.9V433.5C117.7,428.2,113.5,423.8,108.2,423.5z M115,608.3c0,1.7-0.6,3.2-1.5,4.4
							c-0.1,0.1-0.1,0.1-0.2,0.2c-0.2,0.2-0.3,0.4-0.5,0.6c-0.2,0.2-0.3,0.3-0.5,0.4h0c-0.2,0.2-0.4,0.3-0.7,0.5
							c-0.2,0.2-0.5,0.3-0.7,0.4h0c-0.1,0.1-0.3,0.1-0.4,0.2c0,0,0,0,0,0c-0.1,0.1-0.3,0.1-0.4,0.2c-0.3,0.1-0.5,0.2-0.8,0.2
							c-0.3,0.1-0.7,0.1-1,0.2c0,0-0.1,0-0.1,0h0l0,0h0c0,0-0.1,0-0.1,0c0,0-0.1,0-0.1,0c-0.1,0-0.1,0-0.2,0H34.8c-0.1,0-0.1,0-0.2,0
							c-0.1,0-0.1,0-0.2,0h0l0,0h0c0,0-0.1,0-0.1,0c-3.8-0.3-6.7-3.5-6.7-7.3V433.5c0-3.8,3-7,6.8-7.3h0.1l0.1,0c0.1,0,0.2,0,0.3,0
							h72.9c0.1,0,0.2,0,0.3,0l0,0h0c0,0,0,0,0.1,0c0.1,0,0.1,0,0.2,0c0,0,0.1,0,0.1,0c0.1,0,0.1,0,0.2,0c0.1,0,0.2,0,0.2,0
							c0,0,0,0,0,0c0.1,0,0.2,0,0.3,0.1c0,0,0,0,0.1,0c0.1,0,0.2,0,0.3,0.1c0.1,0,0.3,0.1,0.4,0.1c0.1,0,0.2,0.1,0.3,0.1
							c0.1,0,0.2,0.1,0.3,0.1c0.2,0.1,0.4,0.2,0.6,0.3c0.2,0.1,0.4,0.2,0.5,0.3c0,0,0.1,0.1,0.1,0.1c0.1,0,0.1,0.1,0.2,0.1
							c0.1,0.1,0.2,0.1,0.3,0.2c0.2,0.1,0.3,0.3,0.5,0.4c0.1,0.1,0.2,0.2,0.2,0.2c0.1,0.1,0.2,0.2,0.2,0.2c0.3,0.3,0.6,0.7,0.8,1.1
							c0.1,0.2,0.2,0.4,0.3,0.6c0.1,0.2,0.2,0.4,0.3,0.6c0,0.1,0.1,0.2,0.1,0.3c0.1,0.2,0.1,0.5,0.2,0.7c0,0.1,0,0.2,0,0.3
							c0.1,0.3,0.1,0.7,0.1,1.1V608.3z"/>
						<path d="M47,429.6c0,0,0-0.1-0.1-0.1c0,0,0,0,0-0.1C46.9,429.4,47,429.5,47,429.6z"/>
						<path d="M95.6,429.3C95.6,429.4,95.6,429.4,95.6,429.3c0,0.1-0.1,0.2-0.1,0.2C95.6,429.5,95.6,429.4,95.6,429.3z"/>
					</g>
					<path d="M97.2,426.2c-0.6,0-1.1,0.5-1.1,1.1c0,0.1,0,0.1,0,0.2c0,0.2,0,0.4-0.1,0.7c0,0.1,0,0.1,0,0.2c0,0,0,0,0,0
						c0,0.1,0,0.2-0.1,0.3c0,0.1,0,0.2-0.1,0.2c0,0,0,0,0,0.1c0,0,0,0,0,0.1c0,0,0,0,0,0c0,0,0,0.1,0,0.1c0,0,0,0.1,0,0.1
						c0,0.1-0.1,0.1-0.1,0.2c0,0.1-0.1,0.1-0.1,0.2c0,0,0,0,0,0c0,0,0,0,0,0c0,0.1-0.1,0.1-0.1,0.2c0,0,0,0.1-0.1,0.1c0,0,0,0,0,0
						c0,0,0,0,0,0.1c0,0,0,0.1-0.1,0.1c0,0,0,0,0,0c0,0,0,0,0,0c0,0,0,0,0,0.1c0,0,0,0,0,0.1c0,0,0,0,0,0.1c0,0,0,0,0,0
						c0,0,0,0,0,0.1c0,0,0,0,0,0c0,0,0,0-0.1,0.1c0,0,0,0,0,0s0,0,0,0c0,0,0,0.1-0.1,0.1c0,0,0,0,0,0c0,0,0,0.1-0.1,0.1h0
						c0,0-0.1,0.1-0.1,0.1c0,0-0.1,0.1-0.1,0.1c0,0,0,0,0,0h0c0,0,0,0-0.1,0.1c0,0,0,0-0.1,0.1c0,0,0,0-0.1,0.1c0,0-0.1,0.1-0.1,0.1
						c0,0-0.1,0.1-0.1,0.1c0,0,0,0-0.1,0.1c0,0-0.1,0.1-0.1,0.1c0,0-0.1,0.1-0.1,0.1c0,0-0.1,0-0.1,0.1c0,0-0.1,0-0.1,0.1
						c0,0,0,0,0,0c0,0-0.1,0-0.1,0.1c0,0,0,0,0,0c-0.1,0-0.1,0.1-0.2,0.1c0,0-0.1,0.1-0.1,0.1c-0.1,0-0.1,0.1-0.2,0.1c0,0,0,0-0.1,0
						c0,0,0,0,0,0c0,0-0.1,0-0.1,0.1c0,0-0.1,0-0.1,0.1c0,0-0.1,0-0.1,0c0,0,0,0-0.1,0c0,0,0,0,0,0h0c-0.1,0-0.2,0.1-0.3,0.1
						c-0.1,0-0.2,0.1-0.2,0.1c-0.1,0-0.2,0.1-0.3,0.1c-0.2,0-0.4,0.1-0.6,0.1c-0.1,0-0.2,0-0.2,0c0,0,0,0,0,0c-0.1,0-0.1,0-0.2,0
						c-0.1,0-0.2,0-0.2,0c0,0-0.1,0-0.1,0H52.2c0,0,0,0-0.1,0c-0.1,0-0.2,0-0.2,0c-0.1,0-0.1,0-0.2,0c0,0,0,0,0,0c-0.1,0-0.2,0-0.2,0
						c-0.2,0-0.4-0.1-0.6-0.1c-0.1,0-0.2,0-0.3-0.1c-0.1,0-0.2-0.1-0.2-0.1c-0.1,0-0.2-0.1-0.3-0.1h0c0,0,0,0,0,0c0,0,0,0-0.1,0
						c0,0-0.1,0-0.1,0c0,0-0.1,0-0.1-0.1c0,0-0.1,0-0.1-0.1c0,0,0,0,0,0c0,0,0,0-0.1,0c-0.1,0-0.1-0.1-0.2-0.1c0,0-0.1,0-0.1-0.1
						c-0.1,0-0.1-0.1-0.2-0.1c0,0,0,0,0,0c0,0-0.1,0-0.1-0.1c0,0,0,0,0,0c0,0-0.1,0-0.1-0.1c0,0-0.1,0-0.1-0.1c0,0-0.1-0.1-0.1-0.1
						c0,0-0.1-0.1-0.1-0.1c0,0,0,0-0.1-0.1c0,0-0.1-0.1-0.1-0.1c0,0-0.1-0.1-0.1-0.1c0,0,0,0-0.1-0.1c0,0,0,0-0.1-0.1
						c0,0,0,0-0.1-0.1h0c0,0,0,0,0-0.1c0-0.1-0.1-0.1-0.1-0.2h0c0,0,0-0.1-0.1-0.1c0,0,0,0,0,0c0,0,0-0.1-0.1-0.1c0,0,0,0,0,0
						c0,0,0,0,0,0c0,0,0,0-0.1-0.1c0,0,0,0,0,0c0,0,0,0,0-0.1c0,0,0,0,0,0c0,0,0,0,0-0.1c0,0,0,0,0-0.1c0,0,0,0,0-0.1c0,0,0,0,0,0
						c0,0,0,0,0,0c0,0,0-0.1-0.1-0.1c0,0,0,0,0-0.1c0,0,0,0,0,0c0,0-0.1-0.1-0.1-0.1c0-0.1-0.1-0.1-0.1-0.2c0,0,0,0,0,0c0,0,0,0,0,0
						c0-0.1-0.1-0.1-0.1-0.2c0-0.1-0.1-0.1-0.1-0.2c0,0,0-0.1,0-0.1c0,0,0-0.1,0-0.1c0,0,0,0,0,0c0,0,0,0,0-0.1c0,0,0,0,0-0.1
						c0-0.1,0-0.2-0.1-0.2c0-0.1,0-0.2-0.1-0.3c0,0,0,0,0,0c0-0.1,0-0.1,0-0.2c0-0.2-0.1-0.4-0.1-0.7c0-0.1,0-0.1,0-0.2
						c-0.1-0.6-0.5-1.1-1.1-1.1H97.2z"/>
					<path d="M51.9,432.9c0.1,0,0.2,0,0.2,0c0,0-0.1,0-0.1,0C52,432.9,51.9,432.9,51.9,432.9c-0.1,0-0.1,0-0.2,0c0,0,0,0,0,0
						C51.8,432.9,51.8,432.9,51.9,432.9z"/>
					<path d="M90.8,432.9C90.8,432.9,90.8,432.9,90.8,432.9c-0.1,0-0.1,0-0.2,0c0,0-0.1,0-0.1,0c0,0-0.1,0-0.1,0c0.1,0,0.2,0,0.2,0
						C90.7,432.9,90.8,432.9,90.8,432.9z"/>
					<path d="M46.8,429.1C46.8,429.1,46.8,429.1,46.8,429.1C46.8,429.1,46.8,429.1,46.8,429.1C46.8,429.1,46.8,429.1,46.8,429.1z"/>
					<path d="M47,429.6c0,0,0-0.1-0.1-0.1c0,0,0,0,0-0.1C46.9,429.4,47,429.5,47,429.6z"/>
					<path d="M47.7,430.7C47.7,430.7,47.7,430.7,47.7,430.7C47.7,430.6,47.7,430.6,47.7,430.7C47.7,430.7,47.7,430.7,47.7,430.7z"/>
					<path d="M47.9,431C47.9,431,47.9,430.9,47.9,431c-0.1-0.1-0.1-0.1-0.1-0.2h0C47.9,430.9,47.9,430.9,47.9,431z"/>
					<path d="M48.1,431.1C48,431.1,48,431.1,48.1,431.1L48.1,431.1C48,431.1,48,431.1,48.1,431.1z"/>
					<path d="M48.7,431.7c0,0-0.1-0.1-0.1-0.1c0,0-0.1,0-0.1-0.1c0,0,0,0-0.1-0.1c0,0,0.1,0.1,0.1,0.1
						C48.6,431.7,48.7,431.7,48.7,431.7z"/>
					<path d="M48.8,431.8C48.9,431.8,48.9,431.8,48.8,431.8C48.9,431.9,48.9,431.9,48.8,431.8C48.9,431.8,48.8,431.8,48.8,431.8z"/>
					<path d="M49.2,432.1C49.2,432.1,49.2,432,49.2,432.1c-0.1-0.1-0.1-0.1-0.1-0.1c0,0,0,0-0.1,0C49.1,432,49.2,432,49.2,432.1z"/>
					<path d="M50.3,432.6c-0.1,0-0.1-0.1-0.2-0.1c0,0,0,0,0,0C50.1,432.5,50.2,432.6,50.3,432.6z"/>
					<path d="M50.6,432.7c0.1,0,0.2,0.1,0.3,0.1C50.8,432.8,50.7,432.7,50.6,432.7C50.6,432.7,50.6,432.7,50.6,432.7c0,0-0.1,0-0.1,0
						c0,0-0.1,0-0.1,0C50.4,432.6,50.5,432.7,50.6,432.7z"/>
					<path d="M51.4,432.9c0.1,0,0.2,0,0.2,0C51.6,432.9,51.5,432.9,51.4,432.9C51.4,432.9,51.4,432.9,51.4,432.9
						C51.4,432.9,51.3,432.9,51.4,432.9c-0.2,0-0.2,0-0.3,0c-0.1,0-0.2,0-0.2-0.1c0,0,0,0,0,0C51,432.8,51.2,432.9,51.4,432.9z"/>
					<path d="M51.9,432.9L51.9,432.9C51.9,432.9,51.8,432.9,51.9,432.9c-0.1,0-0.2,0-0.2,0c0,0,0,0,0,0
						C51.8,432.9,51.8,432.9,51.9,432.9z"/>
					<path d="M90.3,433C90.3,433,90.3,433,90.3,433l-38,0c0,0-0.1,0-0.1,0H90.3z"/>
					<path d="M90.6,432.9c0.1,0,0.1,0,0.2,0c0,0,0,0,0,0C90.8,432.9,90.7,432.9,90.6,432.9C90.7,432.9,90.7,432.9,90.6,432.9
						L90.6,432.9z"/>
					<path d="M91.1,432.9c0.2,0,0.4-0.1,0.6-0.1c0,0,0,0,0,0c-0.1,0-0.2,0-0.2,0.1C91.3,432.8,91.3,432.9,91.1,432.9
						C91.2,432.9,91.2,432.9,91.1,432.9C91.1,432.9,91.1,432.9,91.1,432.9c-0.1,0-0.2,0-0.2,0C91,432.9,91,432.9,91.1,432.9z"/>
					<path d="M92.2,432.6c0,0-0.1,0-0.1,0c0,0-0.1,0-0.1,0c0,0-0.1,0-0.1,0c-0.1,0-0.1,0-0.2,0c0.1,0,0.2,0,0.3-0.1
						C92.1,432.7,92.1,432.6,92.2,432.6z"/>
					<path d="M92.2,432.6c0.1,0,0.2-0.1,0.3-0.1c0,0,0,0,0,0C92.4,432.6,92.3,432.6,92.2,432.6z"/>
					<path d="M93.3,432.1c0.1,0,0.1-0.1,0.2-0.1c0,0,0,0-0.1,0C93.4,432,93.4,432,93.3,432.1C93.4,432,93.3,432.1,93.3,432.1z"/>
					<path d="M93.7,431.8C93.7,431.8,93.7,431.8,93.7,431.8C93.6,431.9,93.6,431.9,93.7,431.8C93.6,431.8,93.7,431.8,93.7,431.8z"/>
					<path d="M94.1,431.5C94.1,431.5,94,431.5,94.1,431.5c-0.1,0.1-0.1,0.1-0.1,0.1c0,0-0.1,0.1-0.1,0.1c0,0,0.1-0.1,0.1-0.1
						C94,431.6,94,431.5,94.1,431.5z"/>
					<path d="M94.5,431C94.5,431.1,94.5,431.1,94.5,431C94.5,431.1,94.5,431.1,94.5,431L94.5,431z"/>
					<path d="M94.7,430.8C94.7,430.9,94.7,430.9,94.7,430.8c-0.1,0.1-0.1,0.1-0.1,0.1C94.7,430.9,94.7,430.9,94.7,430.8L94.7,430.8z"
						/>
					<path d="M94.9,430.6C94.9,430.7,94.8,430.7,94.9,430.6C94.8,430.7,94.9,430.7,94.9,430.6C94.9,430.6,94.9,430.6,94.9,430.6z"/>
					<path d="M95.6,429.3C95.6,429.4,95.6,429.4,95.6,429.3c0,0.1-0.1,0.2-0.1,0.2C95.6,429.5,95.6,429.4,95.6,429.3z"/>
					<path d="M95.7,429.1C95.7,429.1,95.7,429.1,95.7,429.1C95.7,429.1,95.7,429.1,95.7,429.1C95.7,429.1,95.7,429.1,95.7,429.1z"/>
					<g>
						<linearGradient id="SVGID_41_" gradientUnits="userSpaceOnUse" x1="25.8773" y1="613.871" x2="116.6579" y2="613.871">
							<stop  offset="0" style="stop-color:#000000"/>
							<stop  offset="0.1045" style="stop-color:#141414"/>
							<stop  offset="0.2593" style="stop-color:#2C2C2C"/>
							<stop  offset="0.4027" style="stop-color:#3B3B3B"/>
							<stop  offset="0.5229" style="stop-color:#404040"/>
							<stop  offset="0.6306" style="stop-color:#393939"/>
							<stop  offset="0.7927" style="stop-color:#242424"/>
							<stop  offset="0.9882" style="stop-color:#020202"/>
							<stop  offset="1" style="stop-color:#000000"/>
						</linearGradient>
						<path fill="url(#SVGID_41_)" d="M116.7,608.7v2c0,2.1-0.5,4-1.5,5.7c-1.8,1.6-4,2.7-6.6,2.9c-0.1,0-0.2,0-0.3,0
							c-0.2,0-0.4,0-0.6,0H34.8c-0.2,0-0.4,0-0.6,0c-0.1,0-0.2,0-0.3,0c-0.1,0-0.3,0-0.4,0c-2.4-0.3-4.5-1.3-6.1-2.8
							c-1-1.7-1.5-3.6-1.5-5.7v-2.4c0,2.7,1.2,5.1,3.1,6.8c1.4,1.2,3.2,2,5.1,2.1c0.1,0,0.1,0,0.2,0l0,0h0c0.2,0,0.3,0,0.5,0h72.9
							c0.2,0,0.3,0,0.5,0h0l0,0c0.1,0,0.1,0,0.2,0C112.9,617,116.5,613.2,116.7,608.7z"/>
						<linearGradient id="SVGID_42_" gradientUnits="userSpaceOnUse" x1="25.8773" y1="428.0649" x2="118.6886" y2="428.0649">
							<stop  offset="0" style="stop-color:#000000"/>
							<stop  offset="0.1045" style="stop-color:#141414"/>
							<stop  offset="0.2593" style="stop-color:#2C2C2C"/>
							<stop  offset="0.4027" style="stop-color:#3B3B3B"/>
							<stop  offset="0.5229" style="stop-color:#404040"/>
							<stop  offset="0.6306" style="stop-color:#393939"/>
							<stop  offset="0.7927" style="stop-color:#242424"/>
							<stop  offset="0.9882" style="stop-color:#020202"/>
							<stop  offset="1" style="stop-color:#000000"/>
						</linearGradient>
						<path fill="url(#SVGID_42_)" d="M118.7,433.6L118.7,433.6c0-5.9-4.6-10.7-10.4-11l0,0c-0.2,0-0.4,0-0.6,0H34.8
							c-0.2,0-0.4,0-0.6,0l0,0h0c-0.2,0-0.5,0-0.7,0.1c-2.4,0.3-4.5,1.3-6.1,2.8c-1,1.7-1.5,3.6-1.5,5.7v2.4c0-2.7,1.2-5.2,3.1-6.8
							c1.4-1.2,3.3-2,5.3-2.1h0l0.1,0c0.2,0,0.3,0,0.4,0h72.9c0.1,0,0.2,0,0.4,0h0l0.1,0c4.6,0.2,8.3,4,8.5,8.6v-2
							c0-2.1-0.5-4-1.5-5.7C117.3,427.5,118.7,430.4,118.7,433.6z"/>
						<linearGradient id="SVGID_43_" gradientUnits="userSpaceOnUse" x1="23.8491" y1="520.9016" x2="25.9451" y2="520.9016">
							<stop  offset="0" style="stop-color:#404040"/>
							<stop  offset="0.644" style="stop-color:#1A1A1A"/>
							<stop  offset="1" style="stop-color:#0A0A0A"/>
						</linearGradient>
						<path fill="url(#SVGID_43_)" d="M27.4,616.4c-2.2-2-3.5-4.9-3.5-8V433.5c0-3.2,1.4-6.1,3.5-8.1c-1,1.7-1.5,3.6-1.5,5.7v179.6
							C25.9,612.8,26.4,614.7,27.4,616.4z"/>
						<linearGradient id="SVGID_44_" gradientUnits="userSpaceOnUse" x1="115.138" y1="520.9724" x2="118.681" y2="520.9724">
							<stop  offset="0" style="stop-color:#0A0A0A"/>
							<stop  offset="0.356" style="stop-color:#1A1A1A"/>
							<stop  offset="1" style="stop-color:#404040"/>
						</linearGradient>
						<path fill="url(#SVGID_44_)" d="M118.7,433.6v174.8c0,1.1-0.2,2.1-0.5,3.1c-0.2,0.8-0.6,1.6-1,2.3c-0.1,0.1-0.2,0.3-0.3,0.4
							c-0.1,0.2-0.3,0.4-0.4,0.6c-0.4,0.6-0.9,1.1-1.4,1.6c0,0,0,0,0,0c1-1.7,1.5-3.6,1.5-5.7V431.2c0-2.1-0.5-4-1.5-5.7
							C117.3,427.5,118.7,430.4,118.7,433.6z"/>
					</g>
					<g>
						<linearGradient id="SVGID_45_" gradientUnits="userSpaceOnUse" x1="65.1438" y1="427.5825" x2="76.7768" y2="427.5825">
							<stop  offset="0" style="stop-color:#333333"/>
							<stop  offset="9.012379e-02" style="stop-color:#2B2B2B"/>
							<stop  offset="0.2885" style="stop-color:#1E1E1E"/>
							<stop  offset="0.4787" style="stop-color:#1A1A1A"/>
							<stop  offset="0.7885" style="stop-color:#1C1C1C"/>
							<stop  offset="0.8999" style="stop-color:#232323"/>
							<stop  offset="0.9792" style="stop-color:#2E2E2E"/>
							<stop  offset="1" style="stop-color:#333333"/>
						</linearGradient>
						<path fill="url(#SVGID_45_)" d="M76.4,428.2h-11c-0.2,0-0.3-0.1-0.3-0.3v-0.6c0-0.2,0.1-0.3,0.3-0.3h11c0.2,0,0.3,0.1,0.3,0.3
							v0.6C76.8,428,76.6,428.2,76.4,428.2z"/>
					</g>
					<g>
						<defs>
							<path id="SVGID_46_" d="M108.2,426.2L108.2,426.2l-0.2,0c-0.1,0-0.2,0-0.3,0H97.2c-0.6,0-1.1,0.5-1.1,1.1c0,0,0,0.1,0,0.1v0
								c-0.1,3.1-2.7,5.5-5.8,5.5h-18h-2h-18c-3.1,0-5.7-2.5-5.8-5.5v0c0,0,0-0.1,0-0.1c-0.1-0.6-0.5-1.1-1.1-1.1H34.8
								c-0.1,0-0.2,0-0.3,0l-0.1,0h-0.1c-3.8,0.3-6.8,3.4-6.8,7.3v174.8c0,3.8,3,7,6.7,7.3c0,0,0.1,0,0.1,0h0l0,0h0l0,0
								c0.1,0,0.3,0,0.4,0h35.4h2h35.4c0.1,0,0.3,0,0.4,0l0,0h0l0,0h0c0,0,0.1,0,0.1,0c3.8-0.3,6.7-3.5,6.7-7.3V433.5
								C115,429.6,112,426.5,108.2,426.2z"/>
						</defs>
						<clipPath id="SVGID_47_">
							<use xlink:href="#SVGID_46_"  overflow="visible"/>
						</clipPath>
					</g>
				</g>
				<linearGradient id="SVGID_48_" gradientUnits="userSpaceOnUse" x1="4.1715" y1="453.8078" x2="138.3625" y2="587.9988">
					<stop  offset="0" style="stop-color:#F2F3F4"/>
					<stop  offset="0.3559" style="stop-color:#EDEEEF"/>
					<stop  offset="0.7827" style="stop-color:#DFE0E0"/>
					<stop  offset="1" style="stop-color:#D5D6D6"/>
				</linearGradient>
				<path fill="url(#SVGID_48_)" d="M115,433.5v174.8c0,1.7-0.6,3.2-1.5,4.4c-0.1,0.1-0.1,0.1-0.2,0.2c-0.2,0.2-0.3,0.4-0.5,0.6
					c-0.2,0.2-0.3,0.3-0.5,0.4h0c-0.2,0.2-0.4,0.3-0.7,0.5c-0.2,0.2-0.5,0.3-0.7,0.4h0c-0.1,0.1-0.3,0.1-0.4,0.2c0,0,0,0,0,0
					c-0.1,0.1-0.3,0.1-0.4,0.2c-0.3,0.1-0.5,0.2-0.8,0.2c-0.3,0.1-0.7,0.1-1,0.2c0,0-0.1,0-0.1,0h0l0,0h0l0,0c0,0-0.1,0-0.1,0
					c0,0-0.1,0-0.1,0c-0.1,0-0.1,0-0.2,0H34.8c-0.1,0-0.1,0-0.2,0c-0.1,0-0.1,0-0.2,0l0,0h0l0,0h0c0,0-0.1,0-0.1,0
					c-3.8-0.3-6.7-3.5-6.7-7.3V433.5c0-3.8,3-7,6.8-7.3h0.1l0.1,0c0.1,0,0.2,0,0.3,0h10.5c0.6,0,1.1,0.5,1.1,1.1c0,0,0,0.1,0,0.1v0
					c0,0,0,0,0,0c0,0.2,0,0.4,0.1,0.7c0,0.1,0,0.1,0,0.2c0,0,0,0,0,0c0,0.1,0,0.2,0.1,0.3c0,0.1,0,0.2,0.1,0.2c0,0,0,0,0,0.1
					c0,0,0,0,0,0.1c0,0,0,0,0,0c0,0,0,0.1,0,0.1c0,0,0,0.1,0,0.1c0,0,0,0,0,0c0,0.1,0.1,0.1,0.1,0.2c0,0.1,0.1,0.1,0.1,0.2
					c0,0,0,0,0,0c0,0,0,0,0,0c0,0.1,0.1,0.1,0.1,0.2c0,0,0,0.1,0.1,0.1c0,0,0,0,0,0c0,0,0,0,0,0.1c0,0,0,0.1,0.1,0.1c0,0,0,0,0,0
					c0,0,0,0,0,0c0,0,0,0,0,0.1c0,0,0,0,0,0.1c0,0,0,0,0,0.1c0,0,0,0,0,0c0,0,0,0,0,0.1c0,0,0,0,0,0c0,0,0,0,0.1,0.1c0,0,0,0,0,0
					c0,0,0,0,0,0c0,0,0,0.1,0.1,0.1c0,0,0,0,0,0c0,0,0,0.1,0.1,0.1h0c0,0,0,0,0,0.1c0,0,0.1,0.1,0.1,0.1c0,0,0,0,0,0.1h0
					c0,0,0,0,0.1,0.1c0,0,0,0,0.1,0.1c0,0,0,0,0.1,0.1c0,0,0.1,0.1,0.1,0.1c0,0,0.1,0.1,0.1,0.1c0,0,0,0,0.1,0.1c0,0,0,0,0.1,0.1
					c0,0,0.1,0,0.1,0.1v0c0,0,0.1,0.1,0.1,0.1c0,0,0.1,0,0.1,0.1c0,0,0,0,0.1,0.1c0,0,0,0,0,0c0,0,0,0,0,0c0,0,0.1,0,0.1,0.1
					c0,0,0,0,0,0c0,0,0,0,0.1,0c0,0,0,0,0,0c0,0,0.1,0,0.1,0.1c0,0,0.1,0.1,0.1,0.1c0.1,0,0.1,0.1,0.2,0.1c0,0,0,0,0.1,0c0,0,0,0,0,0
					c0,0,0.1,0,0.1,0.1c0,0,0.1,0,0.1,0.1c0,0,0.1,0,0.1,0c0,0,0,0,0.1,0c0,0,0,0,0,0c0,0,0,0,0,0c0.1,0,0.1,0.1,0.2,0.1
					c0,0,0.1,0,0.1,0c0,0,0.1,0,0.1,0v0c0,0,0.1,0,0.1,0c0.1,0,0.1,0,0.2,0c0,0,0,0,0,0c0.1,0,0.2,0,0.2,0.1c0.1,0,0.1,0,0.2,0
					c0,0,0.1,0,0.1,0v0c0,0,0,0,0,0c0.1,0,0.1,0,0.2,0c0,0,0,0,0,0c0,0,0,0,0,0c0,0,0.1,0,0.1,0c0,0,0,0,0.1,0c0,0,0.1,0,0.1,0
					c0.1,0,0.1,0,0.2,0c0,0,0,0,0.1,0h37.9c0,0,0.1,0,0.1,0c0.1,0,0.1,0,0.2,0c0,0,0.1,0,0.1,0c0,0,0,0,0.1,0c0,0,0.1,0,0.1,0
					c0,0,0,0,0,0c0,0,0,0,0,0c0.1,0,0.1,0,0.2,0c0,0,0,0,0,0v0c0,0,0.1,0,0.1,0c0.1,0,0.1,0,0.2,0c0.1,0,0.2,0,0.2-0.1c0,0,0,0,0,0
					c0.1,0,0.1,0,0.2,0c0,0,0.1,0,0.1,0v0c0,0,0.1,0,0.1,0c0,0,0.1,0,0.1,0c0.1,0,0.1-0.1,0.2-0.1c0,0,0,0,0,0c0,0,0,0,0,0
					c0,0,0,0,0.1,0c0,0,0.1,0,0.1,0c0,0,0.1,0,0.1-0.1c0,0,0.1,0,0.1-0.1c0,0,0,0,0,0c0,0,0,0,0.1,0c0.1,0,0.1-0.1,0.2-0.1
					c0,0,0.1,0,0.1-0.1c0,0,0.1,0,0.1-0.1c0,0,0,0,0,0c0,0,0,0,0.1,0c0,0,0,0,0,0c0,0,0.1,0,0.1-0.1c0,0,0,0,0,0c0,0,0,0,0,0
					c0,0,0,0,0.1-0.1c0,0,0.1,0,0.1-0.1c0,0,0.1-0.1,0.1-0.1v0c0,0,0.1,0,0.1-0.1c0,0,0,0,0.1-0.1c0,0,0,0,0.1-0.1
					c0,0,0.1-0.1,0.1-0.1c0,0,0.1-0.1,0.1-0.1c0,0,0,0,0.1-0.1c0,0,0,0,0.1-0.1c0,0,0,0,0.1-0.1h0c0,0,0,0,0,0c0,0,0.1-0.1,0.1-0.1
					c0,0,0,0,0,0c0,0,0,0,0-0.1h0c0,0,0-0.1,0.1-0.1c0,0,0,0,0,0c0,0,0-0.1,0.1-0.1c0,0,0,0,0,0s0,0,0,0c0,0,0,0,0.1-0.1c0,0,0,0,0,0
					c0,0,0,0,0-0.1c0,0,0,0,0,0c0,0,0,0,0-0.1c0,0,0,0,0-0.1c0,0,0,0,0-0.1c0,0,0,0,0,0c0,0,0,0,0,0c0,0,0-0.1,0.1-0.1c0,0,0,0,0-0.1
					c0,0,0,0,0,0c0,0,0.1-0.1,0.1-0.1c0-0.1,0.1-0.1,0.1-0.2c0,0,0,0,0,0c0,0,0,0,0,0c0-0.1,0.1-0.1,0.1-0.2c0-0.1,0.1-0.1,0.1-0.2
					c0,0,0,0,0,0c0,0,0-0.1,0-0.1c0,0,0-0.1,0-0.1c0,0,0,0,0,0c0,0,0,0,0-0.1c0,0,0,0,0-0.1c0-0.1,0-0.2,0.1-0.2c0-0.1,0-0.2,0.1-0.3
					c0,0,0,0,0,0c0-0.1,0-0.1,0-0.2c0-0.2,0.1-0.4,0.1-0.7c0,0,0,0,0,0v0c0,0,0-0.1,0-0.1c0.1-0.6,0.5-1.1,1.1-1.1h10.5
					c0.1,0,0.2,0,0.3,0l0,0l0.1,0h0.1c0.1,0,0.1,0,0.2,0c0,0,0.1,0,0.1,0c0.1,0,0.1,0,0.2,0c0.1,0,0.2,0,0.2,0c0,0,0,0,0,0
					c0.1,0,0.2,0,0.3,0.1c0,0,0,0,0.1,0c0.1,0,0.2,0,0.3,0.1c0.1,0,0.3,0.1,0.4,0.1c0.1,0,0.2,0.1,0.3,0.1c0.1,0,0.2,0.1,0.3,0.1
					c0.2,0.1,0.4,0.2,0.6,0.3c0.2,0.1,0.4,0.2,0.5,0.3c0,0,0.1,0.1,0.1,0.1c0.1,0,0.1,0.1,0.2,0.1c0.1,0.1,0.2,0.1,0.3,0.2
					c0.2,0.1,0.3,0.3,0.5,0.4c0.1,0.1,0.2,0.2,0.2,0.2c0.1,0.1,0.2,0.2,0.2,0.2c0.3,0.3,0.6,0.7,0.8,1.1c0.1,0.2,0.2,0.4,0.3,0.6
					c0.1,0.2,0.2,0.4,0.3,0.6c0,0.1,0.1,0.2,0.1,0.3c0.1,0.2,0.1,0.5,0.2,0.7c0,0.1,0,0.2,0,0.3C115,432.8,115,433.1,115,433.5z"/>
			</g>
			<defs>
				<filter id="Adobe_OpacityMaskFilter_8_" filterUnits="userSpaceOnUse" x="26.3" y="416.9" width="92.4" height="195.7">
					<feFlood  style="flood-color:white;flood-opacity:1" result="back"/>
					<feBlend  in="SourceGraphic" in2="back" mode="normal"/>
				</filter>
			</defs>
			<mask maskUnits="userSpaceOnUse" x="26.3" y="416.9" width="92.4" height="195.7" id="SVGID_49_">
				<g filter="url(#Adobe_OpacityMaskFilter_8_)">
					<defs>
						<filter id="Adobe_OpacityMaskFilter_9_" filterUnits="userSpaceOnUse" x="26.3" y="416.9" width="92.4" height="195.7">
							<feFlood  style="flood-color:white;flood-opacity:1" result="back"/>
							<feBlend  in="SourceGraphic" in2="back" mode="normal"/>
						</filter>
					</defs>
					<mask maskUnits="userSpaceOnUse" x="26.3" y="416.9" width="92.4" height="195.7" id="SVGID_49_">
						<g filter="url(#Adobe_OpacityMaskFilter_9_)">
						</g>
					</mask>
					<linearGradient id="SVGID_50_" gradientUnits="userSpaceOnUse" x1="72.4389" y1="612.6029" x2="72.4389" y2="416.8718">
						<stop  offset="0" style="stop-color:#000000"/>
						<stop  offset="0.292" style="stop-color:#020202"/>
						<stop  offset="0.4296" style="stop-color:#0A0A0A"/>
						<stop  offset="0.5348" style="stop-color:#171717"/>
						<stop  offset="0.6238" style="stop-color:#292929"/>
						<stop  offset="0.7023" style="stop-color:#414141"/>
						<stop  offset="0.7735" style="stop-color:#5E5E5E"/>
						<stop  offset="0.8392" style="stop-color:#818181"/>
						<stop  offset="0.9007" style="stop-color:#AAAAAA"/>
						<stop  offset="0.9565" style="stop-color:#D7D7D7"/>
						<stop  offset="1" style="stop-color:#FFFFFF"/>
					</linearGradient>
					<path mask="url(#SVGID_49_)" fill="url(#SVGID_50_)" d="M26.3,605.1C26.3,605.1,26.3,605.1,26.3,605.1
						C26.3,605.1,26.3,605.1,26.3,605.1C26.3,605.1,26.3,605.1,26.3,605.1z M28.2,608.3C28.2,608.3,28.2,608.3,28.2,608.3
						c0,0,0.1,0.1,0.1,0.1C28.3,608.4,28.2,608.4,28.2,608.3z M32.9,611.8c0,0,0.1,0,0.1,0c0,0,0,0,0,0
						C33,611.8,32.9,611.8,32.9,611.8z M111.8,612.6C111.8,612.6,111.8,612.6,111.8,612.6c0,0,0.1,0,0.1,0
						C111.9,612.6,111.8,612.6,111.8,612.6z M118.3,416.9C118.3,416.9,118.3,416.9,118.3,416.9C118.3,416.9,118.3,417,118.3,416.9
						C118.3,417,118.3,416.9,118.3,416.9z M118.4,609.5c0,0,0.1-0.1,0.1-0.1c0,0,0.1-0.1,0.1-0.1
						C118.6,609.4,118.5,609.4,118.4,609.5z"/>
				</g>
			</mask>
			<linearGradient id="SVGID_51_" gradientUnits="userSpaceOnUse" x1="72.4389" y1="612.6029" x2="72.4389" y2="416.8718">
				<stop  offset="0" style="stop-color:#FFFFFF"/>
				<stop  offset="0.8529" style="stop-color:#FFFFFF"/>
				<stop  offset="1" style="stop-color:#FFFFFF"/>
			</linearGradient>
			<path fill="url(#SVGID_51_)" d="M26.3,605.1C26.3,605.1,26.3,605.1,26.3,605.1C26.3,605.1,26.3,605.1,26.3,605.1
				C26.3,605.1,26.3,605.1,26.3,605.1z M28.2,608.3C28.2,608.3,28.2,608.3,28.2,608.3c0,0,0.1,0.1,0.1,0.1
				C28.3,608.4,28.2,608.4,28.2,608.3z M32.9,611.8c0,0,0.1,0,0.1,0c0,0,0,0,0,0C33,611.8,32.9,611.8,32.9,611.8z M111.8,612.6
				C111.8,612.6,111.8,612.6,111.8,612.6c0,0,0.1,0,0.1,0C111.9,612.6,111.8,612.6,111.8,612.6z M118.3,416.9
				C118.3,416.9,118.3,416.9,118.3,416.9C118.3,416.9,118.3,417,118.3,416.9C118.3,417,118.3,416.9,118.3,416.9z M118.4,609.5
				c0,0,0.1-0.1,0.1-0.1c0,0,0.1-0.1,0.1-0.1C118.6,609.4,118.5,609.4,118.4,609.5z"/>
		</g>
		<defs>
			<filter id="Adobe_OpacityMaskFilter_10_" filterUnits="userSpaceOnUse" x="21.2" y="419.9" width="100.9" height="202.1">
				<feFlood  style="flood-color:white;flood-opacity:1" result="back"/>
				<feBlend  in="SourceGraphic" in2="back" mode="normal"/>
			</filter>
		</defs>
		<mask maskUnits="userSpaceOnUse" x="21.2" y="419.9" width="100.9" height="202.1" id="SVGID_52_">
			<g filter="url(#Adobe_OpacityMaskFilter_10_)">
				<defs>
					<filter id="Adobe_OpacityMaskFilter_11_" filterUnits="userSpaceOnUse" x="21.2" y="419.9" width="100.9" height="202.1">
						<feFlood  style="flood-color:white;flood-opacity:1" result="back"/>
						<feBlend  in="SourceGraphic" in2="back" mode="normal"/>
					</filter>
				</defs>
				<mask maskUnits="userSpaceOnUse" x="21.2" y="419.9" width="100.9" height="202.1" id="SVGID_52_">
					<g filter="url(#Adobe_OpacityMaskFilter_11_)">
					</g>
				</mask>
				<linearGradient id="SVGID_53_" gradientUnits="userSpaceOnUse" x1="71.6444" y1="621.9627" x2="71.6444" y2="419.8637">
					<stop  offset="0.198" style="stop-color:#000000"/>
					<stop  offset="0.4968" style="stop-color:#020202"/>
					<stop  offset="0.6045" style="stop-color:#090909"/>
					<stop  offset="0.6813" style="stop-color:#141414"/>
					<stop  offset="0.7433" style="stop-color:#252525"/>
					<stop  offset="0.7965" style="stop-color:#3B3B3B"/>
					<stop  offset="0.8436" style="stop-color:#575757"/>
					<stop  offset="0.8862" style="stop-color:#777777"/>
					<stop  offset="0.9253" style="stop-color:#9D9D9D"/>
					<stop  offset="0.9618" style="stop-color:#C8C8C8"/>
					<stop  offset="0.9941" style="stop-color:#F6F6F6"/>
					<stop  offset="1" style="stop-color:#FFFFFF"/>
				</linearGradient>
				<path mask="url(#SVGID_52_)" fill="url(#SVGID_53_)" d="M122,466.6c-0.1,0-0.1-0.1-0.2-0.1c-0.2,0-0.4,0.2-0.4,0.4v-33.4
					c0-7.5-6.1-13.6-13.6-13.6h-5.1l-81.4,81.4v107c0,7.5,6.1,13.6,13.6,13.6h72.9c7.5,0,13.6-6.1,13.6-13.6v-119
					c0,0.2,0.2,0.4,0.4,0.4c0.1,0,0.2,0,0.2-0.1c0.1-0.1,0.1-0.2,0.1-0.3v-22.5C122.1,466.8,122.1,466.7,122,466.6z"/>
			</g>
		</mask>
		<linearGradient id="SVGID_54_" gradientUnits="userSpaceOnUse" x1="71.6444" y1="621.9627" x2="71.6444" y2="419.8637">
			<stop  offset="0.198" style="stop-color:#FFFFFF"/>
			<stop  offset="0.8866" style="stop-color:#FFFFFF"/>
			<stop  offset="1" style="stop-color:#FFFFFF"/>
		</linearGradient>
		<path opacity="0.2" fill="url(#SVGID_54_)" d="M122,466.6c-0.1,0-0.1-0.1-0.2-0.1c-0.2,0-0.4,0.2-0.4,0.4v-33.4
			c0-7.5-6.1-13.6-13.6-13.6h-5.1l-81.4,81.4v107c0,7.5,6.1,13.6,13.6,13.6h72.9c7.5,0,13.6-6.1,13.6-13.6v-119
			c0,0.2,0.2,0.4,0.4,0.4c0.1,0,0.2,0,0.2-0.1c0.1-0.1,0.1-0.2,0.1-0.3v-22.5C122.1,466.8,122.1,466.7,122,466.6z"/>
	</g>
</svg>
